<?xml version="1.0" standalone="no"?>
<!DOCTYPE svg PUBLIC "-//W3C//DTD SVG 20010904//EN"
 "http://www.w3.org/TR/2001/REC-SVG-20010904/DTD/svg10.dtd">
<svg version="1.0" xmlns="http://www.w3.org/2000/svg"
 width="1024.000000pt" height="1024.000000pt" viewBox="0 0 1024.000000 1024.000000"
 preserveAspectRatio="xMidYMid meet">
<metadata>
Created by potrace 1.11, written by Peter Selinger 2001-2013
</metadata>
<g transform="translate(0.000000,1024.000000) scale(0.100000,-0.100000)"
fill="#000000" stroke="none">
<path d="M6195 9729 c-48 -8 -619 -14 -690 -6 -27 3 -77 -1 -110 -8 -149 -33
-245 -57 -310 -75 -38 -11 -92 -24 -120 -29 -56 -10 -162 -48 -184 -65 -11 -8
-13 -8 -7 2 4 6 2 12 -3 12 -6 0 -11 -4 -11 -8 0 -4 -15 -12 -32 -17 -25 -8
-35 -19 -44 -45 -21 -62 -35 -161 -41 -274 -3 -61 -10 -119 -14 -128 -6 -10
-5 -19 1 -23 15 -9 12 -36 -5 -55 -8 -8 -16 -38 -19 -65 -9 -104 -18 -129 -60
-172 -27 -29 -52 -45 -76 -49 -19 -3 -60 -13 -90 -21 -30 -8 -64 -15 -74 -14
-10 0 -31 -6 -46 -14 -15 -8 -30 -12 -33 -9 -3 3 -32 -4 -64 -16 -32 -12 -78
-26 -103 -32 -44 -10 -189 -76 -222 -102 -32 -24 -41 -140 -33 -401 9 -285 13
-364 19 -381 7 -18 -86 -92 -130 -103 -154 -39 -194 -51 -234 -65 -25 -9 -55
-16 -67 -16 -12 0 -24 -4 -27 -9 -3 -4 -26 -14 -51 -21 -25 -7 -48 -17 -51
-21 -3 -5 -18 -9 -34 -9 -16 0 -31 -4 -34 -9 -7 -11 -104 -57 -136 -64 -14 -4
-35 -16 -48 -27 -23 -22 -23 -24 -23 -180 -1 -36 -1 -146 -1 -245 -1 -99 -1
-233 -2 -297 l0 -117 -71 -11 c-38 -6 -90 -15 -115 -20 -25 -5 -72 -12 -105
-15 -33 -3 -76 -11 -95 -17 -19 -7 -46 -11 -59 -10 -13 1 -30 -3 -38 -9 -7 -7
-16 -9 -19 -6 -15 15 -239 -82 -259 -113 -15 -23 -25 -64 -17 -70 4 -3 8 -117
10 -255 2 -137 5 -294 7 -348 4 -97 3 -98 -22 -108 -45 -17 -106 -27 -198 -34
-49 -4 -98 -9 -108 -11 -10 -3 -31 -7 -48 -9 -17 -3 -36 -8 -43 -13 -6 -5 -36
-12 -66 -16 -91 -11 -233 -45 -286 -67 -35 -16 -84 -58 -84 -75 0 -6 -6 -17
-14 -23 -17 -15 -23 -52 -32 -196 -3 -60 -12 -151 -20 -202 -8 -50 -15 -124
-15 -165 l-1 -73 -61 -19 c-34 -10 -109 -34 -167 -52 -58 -18 -134 -40 -170
-49 -36 -10 -72 -20 -80 -23 -8 -3 -22 -7 -30 -8 -37 -5 -129 -33 -148 -45
-15 -9 -24 -28 -28 -59 -4 -25 -11 -53 -16 -63 -5 -10 -6 -26 -3 -35 4 -9 6
-80 5 -157 -4 -259 3 -456 20 -499 6 -16 8 -49 4 -74 -3 -26 -6 -62 -7 -79 -1
-54 -11 -38 -30 50 -15 69 -24 112 -41 182 -7 29 -29 91 -36 98 -4 5 -11 4
-14 -2 -9 -15 -36 -14 -36 1 0 6 7 20 17 30 9 10 13 21 9 25 -11 11 -47 -40
-40 -57 3 -8 7 -42 9 -75 5 -81 29 -231 54 -334 11 -47 19 -85 18 -86 -1 0
-34 -22 -74 -48 -81 -54 -204 -190 -240 -265 -36 -74 -67 -146 -69 -157 -1 -5
-3 -12 -4 -15 -8 -25 -5 -137 7 -185 44 -186 78 -245 235 -404 44 -45 46 -48
30 -69 -13 -16 -18 -48 -20 -119 -3 -96 -2 -100 33 -168 33 -64 95 -134 120
-135 6 0 27 -9 48 -20 20 -11 45 -20 54 -20 10 0 25 -5 33 -10 12 -8 11 -13
-11 -37 -50 -54 -83 -136 -82 -204 1 -53 28 -138 52 -157 32 -26 160 -5 240
40 45 25 131 90 153 117 10 12 22 21 27 21 5 0 26 -34 47 -76 52 -107 120
-154 224 -156 46 0 135 37 161 68 6 8 21 14 33 14 42 0 60 32 61 110 0 36 4
45 19 48 10 2 21 0 25 -5 11 -18 73 -34 86 -23 10 8 13 6 11 -7 -1 -13 6 -18
24 -17 14 1 28 -5 33 -12 4 -7 14 -11 22 -8 8 4 15 1 15 -5 0 -6 11 -11 24
-11 14 0 31 -7 40 -15 19 -20 45 -19 68 2 19 17 26 5 7 -14 -8 -8 0 -9 32 -1
24 6 50 11 57 11 14 0 15 7 4 22 -11 16 -83 43 -122 45 -36 2 -71 7 -80 10 -3
1 -13 2 -22 1 -10 -1 -18 2 -18 8 0 5 -12 12 -27 14 -27 4 -27 4 4 6 25 1 30
4 26 20 -4 16 2 20 39 25 81 12 143 13 161 4 16 -8 18 -6 13 24 -2 18 -8 54
-11 81 -4 26 -11 47 -15 47 -5 0 -24 -18 -43 -40 -19 -22 -38 -40 -42 -40 -4
0 0 9 9 19 10 11 15 25 11 30 -3 6 -1 11 4 11 6 0 11 7 11 15 0 8 6 15 13 15
9 0 8 3 -2 9 -11 7 -9 13 8 30 25 25 29 63 5 54 -12 -4 -14 0 -8 21 5 22 3 26
-15 26 -12 0 -21 -4 -21 -10 0 -5 4 -10 9 -10 5 0 8 -15 7 -32 -1 -24 -8 -36
-24 -43 -12 -5 -22 -13 -22 -17 0 -5 -4 -8 -10 -8 -5 0 -10 9 -10 20 0 24 -16
26 -28 4 -13 -23 -24 -1 -16 31 3 14 10 25 15 25 5 0 6 -7 3 -15 -4 -9 0 -15
10 -15 10 0 13 6 10 15 -4 8 -1 15 5 15 6 0 11 -7 11 -15 0 -8 5 -15 10 -15 6
0 10 9 10 20 0 11 4 20 10 20 5 0 7 7 4 15 -3 8 1 21 8 29 13 13 15 32 9 104
-1 10 -5 9 -17 -3 -13 -12 -19 -13 -24 -5 -12 20 -33 6 -36 -22 -3 -28 25 -45
44 -26 20 20 21 -10 2 -32 -11 -13 -20 -28 -20 -35 0 -6 -10 -11 -23 -10 -18
2 -22 8 -22 38 0 22 -5 37 -12 37 -6 0 -18 2 -26 6 -9 3 -20 -7 -31 -30 -13
-27 -23 -36 -42 -36 -16 0 -24 5 -21 13 2 6 13 11 23 10 10 -1 13 0 7 3 -17 7
-17 34 0 34 7 0 30 9 52 20 22 11 32 20 22 20 -9 0 -17 5 -17 11 0 6 6 9 13 6
7 -3 21 1 32 9 10 8 34 14 52 14 52 0 38 17 -16 19 -32 1 -52 -4 -61 -14 -7
-8 -16 -12 -21 -9 -12 7 -11 44 1 44 6 0 10 9 10 20 0 11 5 20 10 20 6 0 5 8
-2 20 -16 24 -26 25 -50 3 -17 -15 -18 -15 -18 0 0 10 5 17 10 17 18 0 11 39
-9 52 -10 6 -17 17 -14 24 3 9 -4 12 -24 11 -24 -2 -28 1 -25 21 2 12 -2 22
-7 22 -6 0 -11 -4 -11 -10 0 -5 -9 -10 -20 -10 -22 0 -28 25 -7 33 8 3 7 7 -5
12 -11 4 -29 -1 -48 -15 -22 -16 -30 -18 -30 -7 0 7 11 19 25 25 27 12 33 28
13 34 -6 2 -22 -6 -36 -19 -13 -12 -28 -20 -33 -18 -4 3 -10 1 -14 -5 -3 -5
-11 -10 -16 -10 -13 0 -7 31 6 31 15 1 45 30 45 46 0 16 -17 17 -23 1 -5 -15
-22 90 -18 111 2 9 -3 12 -14 7 -25 -9 -13 17 13 29 12 5 22 13 22 18 0 4 -5
5 -10 2 -6 -4 -10 12 -10 39 0 38 -3 46 -19 46 -24 0 -33 34 -15 57 26 35 14
36 -21 3 -29 -29 -33 -36 -19 -40 15 -6 15 -7 0 -23 -10 -9 -24 -17 -32 -17
-17 0 -18 22 -2 38 9 9 9 12 -2 12 -11 0 -11 3 -2 12 16 16 15 28 -3 28 -15 0
-17 10 -18 88 -1 23 -5 42 -9 42 -4 0 -8 5 -8 11 0 5 4 8 9 5 5 -3 12 1 15 10
4 11 2 15 -8 11 -8 -3 -17 2 -21 11 -3 9 -1 18 4 20 14 5 14 49 1 57 -6 3 -10
-4 -10 -17 0 -16 -3 -19 -9 -10 -7 11 -11 11 -22 0 -8 -8 -23 -17 -33 -21 -14
-5 -16 -11 -9 -18 12 -12 6 -49 -8 -49 -5 0 -9 11 -9 24 0 20 -4 23 -22 19
-22 -4 -23 -4 -4 11 20 16 16 20 -16 17 -9 -1 -19 3 -23 9 -6 10 2 11 82 15
40 1 65 21 40 31 -25 9 -21 24 5 21 22 -2 23 2 23 58 0 33 3 65 7 71 5 7 1 15
-10 19 -16 6 -16 8 3 22 l20 15 -20 -4 c-18 -3 -20 -11 -20 -82 0 -58 -4 -80
-14 -84 -10 -3 -11 2 -6 18 5 16 4 21 -6 18 -8 -3 -14 -16 -14 -30 1 -31 -25
-51 -46 -36 -11 7 -11 11 -1 15 21 8 13 25 -11 21 -16 -2 -22 -9 -21 -26 0
-12 -3 -22 -8 -22 -4 0 -8 11 -8 25 0 14 5 25 10 25 6 0 10 7 10 16 0 8 4 13
9 9 5 -3 16 2 24 10 9 8 24 15 35 15 11 0 22 6 25 14 10 25 -5 26 -38 1 -40
-31 -43 -31 -37 0 3 16 11 25 23 25 11 0 22 7 25 15 4 8 10 13 14 10 5 -3 11
-1 14 4 13 20 -28 21 -49 1 -20 -19 -23 -19 -29 -5 -8 21 -8 40 0 32 4 -3 19
0 35 8 15 8 41 15 57 15 25 0 30 5 36 31 4 22 10 29 21 26 11 -5 12 -1 4 20
-10 26 4 48 23 37 4 -3 8 2 8 11 0 9 -4 14 -9 10 -5 -3 -13 -1 -16 5 -4 7 3
10 21 8 15 -2 29 3 31 9 3 8 -4 12 -19 12 -13 -1 -30 0 -38 2 -8 2 -15 -3 -15
-11 -3 -39 -29 -110 -46 -126 -18 -16 -19 -16 -19 0 0 23 -37 12 -62 -18 -15
-18 -17 -18 -18 -4 0 25 22 75 27 61 6 -17 32 -16 39 1 3 8 14 16 25 19 11 3
19 9 18 14 -1 4 0 10 1 13 4 8 10 72 10 104 0 21 3 27 15 22 8 -3 15 -1 15 4
0 6 5 10 10 10 6 0 10 -7 10 -15 0 -8 4 -15 9 -15 15 0 23 18 16 39 -4 14 -12
17 -28 13 -13 -3 -18 -1 -14 4 5 5 13 10 18 10 5 1 14 2 19 3 6 0 10 6 10 11
0 6 14 24 30 42 l30 31 0 -26 c0 -17 -7 -28 -20 -32 -11 -3 -20 -11 -20 -16 0
-6 8 -6 20 1 16 8 20 8 20 -3 0 -9 12 -14 31 -15 22 0 29 3 25 13 -3 8 -1 29
5 47 7 26 6 35 -7 45 -8 6 -15 15 -14 19 1 5 -3 10 -9 12 -6 2 -11 -1 -11 -6
0 -6 -20 -12 -44 -14 -34 -2 -46 1 -49 12 -2 9 -17 16 -32 18 -16 1 -32 7 -35
13 -4 6 -18 7 -35 3 -19 -5 -26 -3 -21 4 4 6 -6 10 -26 10 -69 -1 -89 2 -83
12 3 5 0 7 -8 4 -8 -3 -41 0 -74 6 -32 6 -71 13 -88 15 -16 3 -55 10 -85 16
-30 6 -65 13 -77 15 -15 3 -23 12 -24 27 -1 17 -2 18 -6 5 -5 -20 -14 -21 -62
-12 -31 7 -32 8 -31 58 3 126 -1 338 -8 414 -4 45 -5 87 -2 92 3 5 43 5 100
-1 52 -5 108 -10 124 -10 16 0 34 -3 40 -7 6 -5 18 -8 26 -7 8 1 24 -3 35 -9
11 -5 34 -11 50 -13 17 -2 44 -5 60 -8 17 -2 46 -6 65 -9 188 -21 249 -30 270
-39 14 -6 43 -12 64 -14 21 -1 44 -7 51 -13 6 -5 14 -8 17 -5 3 3 45 -2 93
-10 49 -9 94 -14 101 -11 7 3 15 2 19 -2 7 -7 255 -52 315 -57 19 -1 46 -6 60
-10 14 -3 41 -8 60 -9 19 -2 64 -8 100 -14 36 -6 135 -21 220 -33 85 -11 160
-25 166 -30 6 -5 29 -10 51 -12 22 -2 46 -8 53 -12 9 -5 11 -4 6 3 -5 8 1 12
15 12 17 0 19 -3 10 -14 -14 -17 0 -29 23 -20 9 3 23 1 31 -6 13 -10 15 -9 16
11 0 24 0 24 9 3 12 -30 29 -39 36 -20 3 9 14 16 24 16 17 0 18 -2 5 -27 -8
-15 -13 -29 -11 -30 7 -8 36 10 36 22 0 7 7 19 16 26 14 11 16 10 14 -11 -3
-38 -1 -54 8 -46 4 4 7 11 8 14 4 32 44 61 44 32 0 -5 -7 -10 -15 -10 -8 0
-15 -7 -15 -16 0 -11 5 -14 17 -10 9 4 20 1 25 -6 5 -9 8 -10 8 -1 0 16 60 43
85 38 11 -2 29 -4 39 -4 19 -1 19 -1 0 -22 -19 -22 -19 -22 6 -14 14 4 27 12
28 16 2 5 13 9 24 9 13 0 18 -5 15 -14 -3 -8 2 -16 13 -19 13 -3 17 0 13 9 -3
9 2 14 15 14 24 0 38 -16 20 -23 -7 -3 -1 -6 15 -6 18 -1 27 4 27 15 0 8 5 12
10 9 6 -4 7 -11 4 -17 -5 -8 8 -9 40 -6 25 3 46 1 46 -4 0 -5 6 -8 13 -7 33 4
68 -2 62 -11 -3 -5 0 -10 8 -10 22 0 9 -37 -14 -43 -10 -3 -19 -13 -19 -24 1
-14 6 -12 30 14 18 20 32 28 36 22 4 -6 0 -16 -7 -21 -11 -7 -11 -11 -1 -15
22 -9 12 -23 -17 -23 -17 0 -33 -5 -37 -11 -5 -8 2 -10 23 -7 62 9 65 -43 3
-56 -19 -3 -30 -12 -30 -22 0 -13 3 -14 15 -4 12 10 15 10 15 -4 0 -23 -4 -31
-12 -29 -5 2 -8 -17 -8 -42 0 -43 1 -45 21 -35 11 7 23 9 26 6 9 -8 -18 -37
-28 -30 -5 3 -9 -4 -9 -15 0 -13 5 -19 14 -15 8 3 17 0 21 -6 4 -6 1 -9 -7 -8
-18 4 -12 -81 7 -119 8 -16 15 -38 15 -51 0 -13 7 -36 15 -53 9 -16 13 -34 10
-39 -3 -6 -1 -10 4 -10 6 0 11 -8 11 -17 0 -35 11 -2 24 73 19 105 31 134 55
134 11 0 26 7 34 15 13 13 16 5 22 -66 4 -45 4 -133 0 -196 -6 -95 -5 -115 6
-111 8 3 15 20 17 39 2 19 8 38 13 43 5 6 9 21 9 34 0 29 77 191 93 198 7 2
14 16 15 31 3 41 12 41 12 0 0 -20 -4 -39 -10 -42 -5 -3 -10 -16 -10 -28 1
-20 2 -21 14 -5 12 16 14 11 19 -40 3 -31 1 -79 -4 -107 -22 -110 -22 -118 -8
-113 8 3 58 20 111 38 93 32 96 34 87 57 -13 35 -11 43 11 43 11 0 20 5 20 12
0 7 10 2 23 -10 18 -19 20 -24 7 -32 -22 -14 -5 -23 19 -10 18 9 20 17 15 53
-4 23 -8 43 -9 45 -6 6 -84 -21 -80 -28 2 -3 -9 -5 -24 -2 -16 2 -32 -1 -35
-7 -4 -6 -15 -11 -24 -11 -21 1 22 21 104 50 l62 22 -3 96 c-2 53 1 105 5 116
7 17 9 18 9 4 1 -24 9 -23 33 5 l19 22 -4 -27 c-3 -19 0 -28 9 -28 8 0 15 -20
20 -59 8 -76 15 -87 43 -72 12 7 21 17 20 24 -2 7 4 25 11 40 10 20 16 24 22
15 6 -10 8 -10 8 1 0 7 6 11 15 7 8 -3 15 -2 15 3 0 4 12 13 27 20 28 13 28
13 9 -8 -21 -23 -18 -35 8 -25 9 3 16 17 16 31 0 20 4 24 19 20 10 -2 29 4 42
15 21 17 21 19 4 14 -20 -6 -20 -6 0 9 11 9 21 11 23 6 5 -14 32 -2 32 15 0
15 165 98 193 96 9 0 15 3 13 7 -3 4 17 18 44 30 32 15 47 27 44 36 -3 7 4 18
15 24 25 14 41 14 41 1 0 -5 -7 -10 -15 -10 -8 0 -15 -8 -15 -17 0 -12 3 -14
8 -6 4 6 37 25 74 42 37 16 76 39 87 50 43 43 53 26 60 -103 l6 -101 -95 2
c-147 3 -271 -38 -374 -123 -63 -52 -84 -65 -71 -44 6 10 -21 3 -40 -10 -5 -4
-40 -17 -77 -29 -65 -21 -68 -24 -73 -59 -3 -20 -8 -45 -10 -55 -3 -14 2 -18
19 -15 13 1 30 -3 38 -10 13 -11 13 -22 -7 -100 -26 -102 -31 -201 -14 -280
14 -69 56 -178 81 -212 78 -104 103 -131 169 -177 107 -74 175 -95 336 -107
49 -4 83 10 66 27 -3 4 -2 7 3 7 5 0 10 18 10 40 1 22 -3 40 -8 40 -4 0 -8 -4
-8 -10 0 -6 -9 -6 -24 0 -13 5 -26 6 -29 3 -3 -3 -11 -2 -17 2 -13 8 41 45 65
45 7 0 31 10 51 22 l37 22 -5 -22 c-4 -12 -2 -20 3 -16 5 3 9 12 9 20 0 8 5
14 11 14 5 0 8 -4 4 -9 -3 -5 0 -13 6 -17 6 -3 15 -1 19 6 4 7 13 10 19 6 26
-16 160 101 186 161 1 1 14 -1 31 -6 l29 -8 -60 -58 c-33 -31 -55 -54 -48 -51
14 8 37 -57 30 -85 -13 -48 107 65 163 154 19 31 38 56 43 57 4 0 7 -15 7 -34
0 -41 17 -93 34 -99 8 -3 11 4 8 24 -3 22 0 29 12 29 12 0 15 6 10 24 -3 13
-1 27 5 30 6 4 8 20 4 36 -4 20 -1 30 6 30 8 0 8 5 -2 15 -16 15 -43 152 -33
162 10 10 14 0 30 -75 8 -39 23 -81 34 -92 10 -11 24 -38 31 -60 13 -44 26
-51 36 -20 4 11 15 20 26 20 11 0 17 -4 14 -10 -3 -5 -13 -10 -20 -10 -17 0
-32 -47 -19 -60 5 -5 15 -5 24 1 13 9 12 10 -2 5 -27 -8 -21 9 6 22 23 10 25
9 31 -20 5 -20 3 -33 -5 -38 -7 -5 12 -16 49 -28 l61 -21 0 29 c0 16 4 32 10
35 5 3 8 0 5 -7 -3 -7 0 -20 5 -28 9 -13 14 -11 34 13 l23 29 7 -33 c4 -23 1
-37 -10 -51 -16 -17 -16 -18 0 -18 9 0 14 -5 11 -10 -4 -6 -16 -8 -28 -4 -19
6 -20 5 -8 -10 12 -14 10 -16 -15 -16 -16 0 -47 11 -69 25 -22 13 -43 25 -48
25 -12 0 1 -93 15 -101 15 -10 98 -34 146 -43 21 -3 47 1 72 12 35 15 40 21
40 50 0 20 6 35 15 38 8 4 12 10 9 15 -3 5 -10 7 -15 3 -5 -3 -9 7 -9 23 1 15
-3 71 -9 123 -22 205 -41 366 -46 388 -3 13 -10 55 -16 95 -14 101 -33 199
-58 291 -22 80 -22 106 0 64 7 -12 46 -58 87 -101 60 -61 83 -79 112 -83 l37
-6 7 -102 c6 -96 14 -194 35 -461 5 -66 12 -127 15 -135 3 -8 7 -39 10 -68 3
-29 8 -58 12 -63 4 -7 -3 -6 -16 1 -20 10 -25 10 -34 -6 -6 -11 -12 -31 -14
-46 -4 -35 17 -46 120 -59 94 -12 126 -13 169 -4 32 7 32 17 5 74 -10 23 -16
24 -78 22 -36 -1 -69 2 -72 8 -4 5 -11 61 -16 123 -8 97 -28 279 -45 407 -16
116 -49 251 -62 251 -10 0 -11 5 -5 18 5 9 7 23 5 30 -3 8 8 12 36 12 40 0 59
4 241 55 52 15 160 44 240 65 134 35 462 138 520 163 14 6 30 11 35 12 6 1 17
4 25 7 8 3 35 11 60 18 49 13 56 16 148 54 35 14 74 26 88 26 21 0 535 165
589 190 11 5 38 14 60 21 22 6 60 22 86 35 50 25 119 41 119 28 0 -5 -9 -70
-20 -144 -11 -74 -21 -160 -22 -192 -1 -50 -4 -57 -24 -62 -63 -16 -198 -141
-230 -212 -33 -74 -45 -109 -50 -139 -2 -16 -7 -41 -10 -55 -9 -34 -1 -161 12
-182 6 -9 -37 -38 -58 -38 -9 0 -23 -7 -32 -15 -8 -9 -19 -15 -23 -15 -4 1 -9
-3 -11 -9 -2 -7 3 -8 14 -4 15 5 16 2 11 -25 -4 -18 -3 -32 2 -32 4 0 6 -13 3
-30 -2 -17 -2 -30 2 -30 16 0 74 35 70 42 -8 13 35 61 68 75 24 10 28 10 20 1
-5 -7 -10 -25 -10 -41 0 -21 6 -28 27 -33 47 -10 53 -14 47 -30 -3 -9 7 -28
27 -49 17 -18 41 -44 53 -57 56 -63 100 -73 239 -55 60 8 60 8 101 -30 23 -21
47 -39 55 -41 8 -2 19 -10 25 -18 6 -8 38 -17 73 -20 56 -6 77 -17 50 -26 -6
-2 -10 -13 -8 -23 4 -17 8 -14 27 16 17 29 35 41 85 59 34 13 71 31 82 40 11
10 30 23 43 29 l23 12 -17 -38 c-8 -21 -19 -47 -24 -59 -13 -34 -71 -126 -106
-170 l-32 -40 29 2 c16 1 29 -2 29 -7 0 -6 -6 -9 -12 -8 -27 3 -38 -2 -38 -17
0 -11 -5 -14 -17 -10 -18 7 -63 -29 -63 -50 0 -7 -8 -15 -17 -17 -11 -3 -7 -5
10 -6 18 -1 27 4 25 12 -3 14 3 17 42 17 17 0 30 -4 30 -10 0 -5 -9 -10 -20
-10 -11 0 -20 -5 -20 -12 0 -6 -3 -9 -6 -5 -4 3 -13 0 -20 -8 -10 -10 -22 -11
-44 -5 -26 7 -33 5 -54 -21 -14 -16 -29 -29 -35 -29 -6 0 -15 -9 -21 -20 -6
-11 -16 -20 -23 -20 -7 0 -23 -12 -36 -25 -13 -14 -29 -25 -37 -25 -8 0 -14
-4 -14 -10 0 -15 16 -12 30 5 7 8 21 15 32 15 10 0 21 7 24 15 4 8 11 15 18
15 6 0 22 12 35 25 13 14 29 25 36 25 7 0 15 6 17 12 3 7 19 13 38 14 22 1 28
-1 19 -7 -12 -7 -12 -9 0 -9 11 0 11 -3 1 -15 -7 -8 -19 -15 -26 -15 -8 0 -14
-4 -14 -9 0 -14 26 -32 34 -23 11 11 56 9 56 -2 0 -6 4 -6 10 0 7 7 28 8 63 2
29 -5 64 -10 79 -11 15 -1 30 -6 34 -10 4 -4 17 -7 29 -7 13 0 29 -7 36 -16
11 -14 11 -18 -4 -29 -9 -7 -17 -21 -18 -31 0 -11 -3 -14 -6 -6 -4 10 -8 10
-20 1 -15 -13 -183 -20 -183 -8 0 3 -31 5 -68 5 -55 -1 -69 -4 -68 -16 1 -10
-8 -15 -26 -15 -14 1 -24 -3 -22 -7 3 -5 -8 -13 -24 -19 -17 -6 -33 -17 -36
-25 -3 -8 -12 -11 -22 -7 -10 4 -15 2 -11 -3 3 -6 -3 -16 -14 -22 -19 -12 -19
-11 -9 9 8 15 9 19 1 15 -6 -4 -18 -20 -26 -36 -17 -33 -105 -87 -105 -64 0 8
-4 14 -8 14 -4 0 -9 -56 -11 -125 l-3 -125 29 -1 c15 0 37 -2 48 -5 11 -2 27
-1 35 2 12 4 12 7 1 13 -17 11 -4 34 15 27 8 -3 14 -1 14 3 0 18 58 28 144 25
98 -4 206 -30 206 -49 0 -14 41 -12 74 3 93 41 273 138 311 166 19 14 37 26
42 26 4 0 27 15 50 33 23 17 59 43 78 57 20 14 49 36 65 50 15 14 45 39 66 55
76 60 143 134 168 187 14 30 26 58 26 62 0 7 41 99 71 158 33 67 36 371 4 465
-27 78 -40 180 -25 198 14 17 0 21 -17 4 -15 -15 -27 39 -13 56 18 21 24 95 8
95 -9 0 -9 3 2 10 8 5 11 10 6 10 -5 0 -3 7 4 15 10 12 10 15 -4 15 -19 0 -21
11 -4 28 9 9 9 12 -2 12 -26 0 -60 -12 -60 -20 0 -5 9 -6 20 -3 11 3 20 0 20
-6 0 -6 -7 -11 -15 -11 -9 0 -14 -8 -12 -21 2 -22 -27 -49 -39 -36 -4 4 -2 37
5 75 15 75 24 352 12 352 -4 0 -12 -12 -19 -28 -11 -26 -11 -26 -5 8 3 19 10
41 15 48 7 8 7 12 0 12 -6 0 -13 -9 -17 -19 -3 -10 -17 -22 -31 -25 -26 -7
-28 -33 -3 -28 10 2 9 -1 -2 -10 -22 -18 -38 -74 -38 -133 0 -28 -5 -64 -11
-80 l-11 -29 -36 36 c-33 33 -35 38 -20 52 26 27 34 126 14 176 -3 8 -12 35
-21 60 -23 72 -64 137 -114 181 l-47 41 30 22 c143 102 235 310 222 502 -6 88
-24 137 -58 154 -17 9 -23 8 -33 -6 -9 -12 -19 -15 -32 -9 -33 14 -48 15 -109
4 -67 -12 -137 -51 -202 -113 l-43 -40 0 29 c0 34 -46 169 -81 236 -39 78 -99
150 -149 181 -35 22 -97 12 -89 -14 0 -2 -18 -23 -40 -47 -23 -24 -41 -49 -41
-55 0 -6 -6 -23 -14 -38 -8 -15 -20 -52 -27 -83 -10 -45 -16 -55 -28 -49 -9 3
-24 9 -33 11 -10 3 -18 11 -18 18 0 8 -8 11 -19 8 -26 -7 -32 9 -15 41 17 34
17 36 4 36 -6 0 -15 -10 -20 -22 l-9 -23 0 22 c-1 12 4 25 9 28 6 3 10 13 10
22 0 12 -3 13 -15 3 -19 -16 -40 -3 -24 16 9 10 9 14 0 14 -6 0 -14 -7 -17
-15 -4 -8 -10 -12 -15 -9 -5 3 -9 -4 -9 -15 0 -14 -6 -21 -19 -21 -11 0 -23
-4 -26 -10 -4 -6 6 -7 25 -4 39 8 40 -10 1 -29 -19 -10 -33 -11 -39 -5 -11 11
-52 -6 -52 -21 0 -5 -13 -14 -30 -21 -16 -7 -30 -16 -30 -21 0 -12 27 -11 50
1 17 9 18 6 17 -42 -1 -33 -7 -53 -16 -56 -10 -3 -12 3 -6 27 7 32 1 37 -29
25 -9 -3 -13 -10 -10 -15 3 -5 10 -7 15 -4 20 13 7 -34 -16 -57 -15 -16 -23
-33 -20 -46 2 -12 -1 -22 -6 -22 -5 0 -12 14 -15 30 -4 17 -12 30 -18 31 -6 0
-2 4 9 9 11 5 14 9 8 9 -7 1 -13 5 -13 11 0 5 7 7 16 3 13 -5 15 -3 7 13 -12
22 -6 47 8 38 6 -3 7 4 4 18 -4 17 2 32 25 57 16 19 30 39 30 45 0 6 -9 0 -20
-14 -22 -29 -24 -24 -10 51 5 30 11 70 14 89 3 19 13 78 22 130 18 103 23 353
7 405 -6 19 -20 35 -40 44 -37 17 -41 34 -48 231 -3 74 -7 180 -10 235 -18
398 -26 1962 -10 2140 4 50 9 108 10 130 4 66 17 951 18 1232 l1 262 -27 25
c-30 28 -32 28 -147 52 -41 8 -95 20 -120 25 -25 5 -110 16 -190 24 -80 8
-183 19 -230 25 -47 5 -116 12 -155 14 -38 2 -109 9 -157 15 -48 6 -90 10 -95
9 -4 -1 -37 1 -73 5 -36 4 -135 9 -220 12 -85 2 -200 7 -255 10 -55 3 -234 8
-399 10 -164 3 -301 7 -305 9 -3 1 -24 -1 -46 -5z m-45 -105 c516 -9 713 -16
860 -29 25 -2 95 -6 155 -10 61 -3 166 -10 235 -15 69 -6 204 -12 301 -15 129
-4 184 -9 205 -20 16 -8 23 -15 16 -15 -7 0 -22 5 -34 11 -11 6 -22 8 -25 5
-8 -7 48 -30 67 -27 11 1 10 -2 -3 -13 -11 -8 -25 -12 -31 -10 -7 3 -32 0 -56
-5 -32 -7 -46 -6 -56 4 -7 7 -10 15 -7 19 4 3 1 6 -5 6 -7 0 -12 -7 -12 -15 0
-8 -7 -15 -15 -15 -8 0 -15 7 -15 15 0 8 -4 15 -10 15 -5 0 -7 -6 -4 -14 4
-10 -5 -13 -35 -12 -25 0 -41 5 -41 13 0 7 7 10 15 7 8 -4 15 -1 15 5 0 16
-30 13 -36 -4 -4 -8 -11 -15 -16 -15 -6 0 -8 7 -4 15 3 8 0 15 -7 16 -88 6
-118 3 -123 -13 -3 -12 -15 -18 -32 -17 -17 1 -21 3 -9 6 32 8 20 33 -17 33
-26 0 -35 -5 -41 -22 l-8 -23 -4 23 c-5 27 -4 27 -48 2 -41 -23 -69 -26 -41
-5 29 22 16 37 -18 20 -35 -19 -36 -18 -36 0 0 13 -3 13 -21 3 -17 -10 -23
-10 -26 0 -6 15 -53 16 -53 0 0 -9 -3 -9 -12 0 -17 17 -58 15 -58 -3 0 -8 -5
-15 -11 -15 -6 0 -9 6 -6 14 4 11 -13 14 -85 15 -76 1 -93 -2 -104 -17 -12
-15 -13 -15 -14 -1 0 24 -154 21 -190 -4 -29 -20 -53 -24 -25 -4 10 8 15 19
11 25 -10 17 -41 15 -56 -3 -7 -8 -16 -15 -21 -15 -5 0 -9 7 -9 15 0 22 -17
18 -23 -5 -3 -11 -11 -20 -17 -20 -10 0 -10 3 0 15 10 12 9 16 -4 21 -9 3 -23
1 -30 -5 -10 -8 -16 -9 -21 -2 -7 12 -415 11 -415 -1 0 -5 -9 -8 -20 -8 -11 0
-20 5 -20 10 0 6 -13 10 -30 10 -20 0 -30 -5 -30 -15 0 -8 -7 -15 -16 -15 -14
0 -14 3 -4 15 11 13 8 15 -14 15 -16 0 -25 -4 -21 -10 3 -5 2 -10 -4 -10 -5 0
-11 5 -13 10 -2 7 -30 8 -81 2 -42 -4 -77 -6 -77 -3 0 3 -138 6 -308 6 -169
-1 -311 1 -317 4 -5 3 15 11 45 18 30 7 105 25 165 41 123 32 62 31 855 16z
m185 -94 c3 -5 1 -10 -4 -10 -6 0 -11 5 -11 10 0 6 2 10 4 10 3 0 8 -4 11 -10z
m645 -4 c0 -11 -19 -15 -25 -6 -3 5 1 10 9 10 9 0 16 -2 16 -4z m186 -12 c-3
-9 -6 -18 -6 -20 0 -2 -4 -4 -9 -4 -7 0 -8 17 -2 38 1 1 6 2 12 2 6 0 8 -7 5
-16z m-416 -4 c0 -5 -7 -10 -16 -10 -8 0 -12 5 -9 10 3 6 10 10 16 10 5 0 9
-4 9 -10z m-1890 -40 c28 0 51 -11 44 -21 -3 -5 3 -9 13 -9 10 0 198 -3 418
-6 220 -2 434 -7 475 -10 41 -2 95 -5 120 -5 25 -1 48 -3 53 -6 4 -2 87 -6
185 -9 97 -2 200 -6 227 -9 28 -3 149 -7 270 -10 205 -6 461 -14 548 -18 20
-1 37 -4 37 -7 0 -3 84 -7 188 -8 103 -2 191 -8 196 -13 6 -5 20 -9 32 -9 13
0 26 -5 30 -11 3 -6 24 -9 45 -7 22 2 39 0 39 -4 0 -13 28 -9 33 5 4 9 8 9 15
-2 6 -8 17 -11 32 -6 18 6 21 4 17 -12 -9 -32 -49 -187 -51 -199 -1 -7 -7 -19
-14 -27 -7 -8 -17 -41 -23 -73 -7 -32 -16 -63 -20 -69 -5 -5 -9 -19 -9 -31 0
-29 -47 -82 -90 -101 -46 -21 -70 -25 -70 -13 0 7 -6 7 -17 2 -10 -6 -37 -13
-60 -17 -24 -4 -45 -11 -49 -16 -3 -5 -9 -7 -14 -4 -10 6 -199 12 -614 20
-159 3 -292 7 -295 10 -4 2 -128 6 -276 9 -149 4 -301 9 -340 11 -38 3 -137 8
-220 10 -267 9 -724 26 -795 30 -19 1 -63 2 -98 3 l-63 2 3 295 4 295 34 36
c26 26 36 31 38 20 2 -9 12 -16 22 -16z m490 -805 c135 -2 301 -6 370 -9 69
-3 186 -8 260 -11 74 -3 158 -8 185 -10 61 -5 395 -25 525 -31 52 -2 149 -8
215 -14 66 -5 208 -12 315 -15 184 -4 251 -13 332 -44 14 -5 29 -14 32 -19 8
-13 -22 -24 -45 -17 -11 4 -19 2 -19 -5 0 -7 -7 -10 -15 -6 -8 3 -15 2 -15 -3
0 -8 -47 -23 -80 -26 -8 -1 -24 -6 -35 -12 -11 -6 -51 -14 -90 -17 -38 -4 -95
-11 -125 -17 -75 -13 -241 -17 -309 -8 -53 8 -141 14 -311 24 -41 2 -104 6
-140 9 -113 10 -181 14 -320 21 -74 4 -157 8 -185 10 -153 12 -677 20 -1228
19 -345 -1 -627 0 -625 1 2 2 71 20 153 39 83 20 168 41 190 48 58 17 190 69
235 93 20 11 74 13 255 9 127 -3 340 -7 475 -9z m-1350 -342 c30 -2 127 -5
215 -8 88 -2 183 -6 210 -9 28 -3 138 -8 245 -11 107 -3 229 -8 270 -10 231
-13 291 -17 345 -22 63 -6 80 -6 400 -16 110 -4 247 -9 305 -13 58 -3 179 -7
270 -9 91 -2 237 -7 325 -10 88 -3 205 -8 260 -9 127 -4 270 -17 283 -25 6 -3
13 -56 16 -116 6 -142 14 -179 33 -164 21 18 27 3 9 -22 -10 -15 -12 -27 -6
-39 5 -10 6 -20 2 -24 -3 -4 -1 -11 6 -15 10 -6 11 -17 5 -42 -9 -32 -15 -36
-104 -70 -150 -57 -370 -106 -489 -110 -57 -2 -311 11 -320 16 -3 2 -59 6
-125 10 -66 3 -174 10 -240 15 -148 10 -148 10 -212 10 -32 1 -53 5 -53 12 0
7 -4 7 -14 -1 -8 -7 -17 -8 -20 -3 -3 5 -34 8 -68 5 -56 -4 -104 -4 -160 0
-10 1 -18 5 -18 9 0 4 -5 8 -11 8 -5 0 -8 -3 -5 -8 5 -8 -20 -8 -199 1 -66 4
-207 9 -314 12 -139 4 -197 9 -204 18 -7 9 -10 9 -14 0 -3 -9 -26 -13 -64 -13
-38 0 -58 4 -54 10 3 6 -1 10 -9 10 -9 0 -16 -4 -16 -10 0 -21 -30 -9 -31 13
l0 22 -11 -22 c-13 -27 -28 -30 -28 -7 0 14 -3 14 -15 4 -8 -7 -41 -15 -72
-17 l-57 -5 18 27 c22 34 16 41 -12 15 -26 -25 -32 -25 -32 -2 0 13 -5 10 -23
-12 -21 -25 -25 -27 -44 -16 -11 8 -29 10 -39 6 -11 -4 -19 -6 -19 -5 0 1 -10
-3 -22 -9 -12 -7 -24 -8 -27 -3 -6 9 -48 7 -65 -3 -21 -13 -61 5 -60 28 1 41
-12 322 -21 456 -14 190 -14 194 8 184 9 -5 42 -10 72 -11z m-25 -743 c44 -5
132 -12 195 -15 63 -3 167 -9 230 -15 63 -5 169 -12 235 -15 66 -3 156 -8 201
-11 44 -3 119 -7 165 -9 155 -5 323 -16 489 -31 91 -8 203 -17 250 -20 47 -3
114 -9 150 -14 36 -5 130 -12 210 -16 80 -3 156 -8 170 -9 14 -2 138 -7 275
-11 157 -4 253 -11 257 -17 3 -6 0 -24 -9 -40 -8 -16 -12 -38 -10 -49 7 -25
-22 -37 -138 -56 -105 -17 -151 -18 -260 -8 -44 4 -161 9 -260 11 -99 3 -184
5 -190 6 -5 0 -21 0 -35 -1 -80 -4 -528 15 -579 25 -14 2 -90 7 -169 10 -79 3
-149 8 -154 11 -6 4 -21 0 -35 -7 -20 -11 -26 -11 -33 0 -5 10 -22 12 -54 9
-25 -3 -43 -2 -40 3 5 9 -12 10 -136 13 -30 0 -58 5 -62 10 -4 6 -13 4 -22 -3
-11 -10 -16 -10 -16 -2 0 7 -6 11 -12 9 -7 -1 -44 4 -83 10 -38 7 -95 17 -125
22 -89 16 -252 21 -267 9 -10 -9 -13 -8 -13 5 0 9 -7 16 -15 16 -8 0 -15 -5
-15 -11 0 -6 -7 -9 -14 -6 -10 4 -13 1 -9 -8 3 -8 9 -12 14 -9 5 3 9 -1 9 -9
0 -8 -12 -18 -27 -22 -15 -3 -31 -12 -35 -18 -6 -9 -8 -9 -8 1 0 6 -5 12 -11
12 -5 0 -7 -5 -3 -12 5 -7 2 -9 -8 -5 -9 3 -21 0 -28 -6 -10 -10 -12 -7 -7 11
6 27 -9 29 -25 2 -17 -26 -28 -26 -21 1 5 19 4 20 -16 9 -29 -15 -121 -30
-121 -19 0 5 -7 6 -15 3 -8 -4 -15 -1 -15 5 0 16 -31 14 -75 -5 -27 -11 -41
-12 -48 -5 -8 8 -6 11 5 11 9 0 20 5 24 11 7 12 -25 6 -63 -13 -28 -14 -41 -4
-23 17 16 19 9 19 -37 0 -19 -8 -37 -15 -39 -15 -2 0 -4 7 -4 15 0 8 -5 15
-11 15 -6 0 -9 -6 -6 -13 3 -8 -1 -14 -9 -14 -8 0 -14 7 -14 16 0 14 -2 14
-10 1 -7 -11 -10 -11 -10 -2 0 7 -4 10 -10 7 -5 -3 -10 -1 -10 4 0 6 -14 11
-31 11 -20 0 -28 4 -23 12 5 8 2 9 -10 5 -44 -17 -68 -19 -76 -6 -7 10 -11 10
-24 0 -9 -8 -16 -9 -16 -4 0 11 44 33 65 33 8 0 41 8 72 19 73 24 228 71 363
112 58 18 114 38 125 45 23 17 36 17 140 4z m195 -204 c0 -3 -4 -8 -10 -11 -5
-3 -10 -1 -10 4 0 6 5 11 10 11 6 0 10 -2 10 -4z m-39 -49 c-16 -16 -26 0 -10
19 9 11 15 12 17 4 2 -6 -1 -17 -7 -23z m-31 14 c0 -5 -7 -14 -15 -21 -12 -10
-15 -10 -15 2 0 8 3 18 7 21 9 10 23 9 23 -2z m260 -11 c0 -5 -7 -10 -16 -10
-8 0 -12 5 -9 10 3 6 10 10 16 10 5 0 9 -4 9 -10z m2470 -10 c-11 -20 -30 -28
-30 -12 0 11 22 32 32 32 5 0 4 -9 -2 -20z m-3115 -10 c3 -5 -1 -10 -10 -10
-9 0 -13 5 -10 10 3 6 8 10 10 10 2 0 7 -4 10 -10z m-542 -99 c34 2 103 0 152
-4 79 -6 185 -11 465 -22 41 -1 107 -3 145 -4 155 -2 399 -10 515 -16 58 -4
152 -7 210 -8 58 -1 107 -5 110 -8 5 -6 111 -13 385 -25 66 -3 126 -7 133 -9
6 -2 13 3 13 13 1 16 2 16 6 0 2 -10 12 -18 21 -19 9 0 31 -2 49 -4 21 -3 33
0 37 11 3 8 11 12 17 8 8 -4 7 -9 -2 -15 -11 -7 -10 -9 4 -9 9 0 18 8 18 18 1
15 2 15 6 0 2 -9 16 -19 31 -23 20 -5 31 -2 43 14 22 27 32 27 24 1 -5 -15 -2
-20 14 -20 10 0 26 -3 35 -6 11 -4 19 2 25 17 l10 24 0 -22 c1 -22 21 -34 21
-13 0 6 5 10 11 10 5 0 7 -4 4 -10 -10 -16 17 -11 37 7 17 15 18 15 18 -5 0
-18 6 -22 30 -22 17 0 30 5 30 13 0 9 2 9 9 -1 9 -16 138 -25 146 -11 9 14 25
11 25 -6 0 -19 89 -21 109 -2 11 10 13 9 8 -4 -4 -14 1 -17 28 -17 125 0 196
-40 194 -109 -2 -64 -13 -87 -49 -105 l-35 -17 38 -1 c34 0 37 -2 37 -30 0
-16 -4 -30 -9 -30 -12 0 -21 -39 -11 -45 5 -3 11 3 13 12 3 10 5 3 6 -16 1
-33 1 -34 -35 -28 -20 3 -44 12 -53 20 -18 15 -91 34 -180 47 -63 9 -162 0
-236 -22 -53 -16 -143 -75 -151 -100 -3 -11 -12 -17 -19 -14 -8 3 -12 0 -9 -7
2 -7 -2 -35 -10 -62 -11 -35 -12 -52 -4 -62 8 -10 4 -13 -18 -14 -38 -2 -58 1
-62 9 -4 12 -166 6 -188 -6 -14 -7 -24 -8 -31 -1 -5 5 -36 10 -69 12 -32 1
-61 5 -64 9 -3 3 -55 9 -115 12 -61 4 -132 8 -160 11 -27 3 -99 7 -160 10 -60
2 -150 7 -200 11 -49 4 -120 7 -157 8 -36 1 -64 4 -61 9 6 9 -1 9 -32 -3 -19
-7 -24 -7 -19 1 7 12 -13 9 -63 -7 -15 -5 -16 -4 -3 6 12 9 8 10 -17 5 -18 -4
-33 -3 -33 2 0 5 -24 10 -52 10 -93 0 -302 12 -338 18 -45 9 -237 19 -555 28
-44 2 -86 6 -92 10 -8 5 -13 38 -13 95 0 173 -10 430 -19 475 -8 44 -7 46 11
36 10 -6 47 -9 81 -8z m2677 -101 c0 -5 -8 -10 -17 -10 -15 0 -16 2 -3 10 19
12 20 12 20 0z m85 -7 c-11 -3 -24 -9 -29 -13 -5 -5 -15 -6 -22 -3 -26 10 -14
18 29 20 23 0 33 -1 22 -4z m110 -3 c-3 -5 -16 -10 -28 -9 -21 0 -21 1 -2 9
28 12 37 12 30 0z m85 -30 c-19 -13 -30 -13 -30 0 0 6 10 10 23 10 18 0 19 -2
7 -10z m-15 -450 c69 -10 172 -53 188 -78 9 -13 44 -11 152 7 33 6 68 8 77 5
9 -3 27 1 40 9 32 20 142 40 208 38 93 -3 232 -50 435 -145 111 -52 139 -65
155 -75 8 -5 42 -22 75 -38 33 -15 63 -32 66 -36 4 -5 37 -24 75 -43 l69 -33
-50 -1 c-27 -1 -59 -4 -70 -6 -11 -2 -67 -9 -125 -14 -148 -13 -203 -20 -220
-26 -8 -3 -35 -8 -60 -11 -25 -3 -57 -11 -72 -18 -20 -9 -28 -10 -31 -2 -3 9
-11 8 -31 -1 -15 -6 -36 -12 -46 -12 -23 0 -23 0 -11 -34 12 -29 -6 -86 -27
-86 -8 0 -16 -9 -19 -20 -8 -28 -102 -77 -114 -59 -9 15 7 29 34 29 10 0 20 7
24 16 3 8 12 13 20 10 8 -3 12 -2 9 3 -6 10 16 61 26 61 4 0 5 -7 2 -15 -4 -8
-1 -15 5 -15 6 0 11 7 11 15 0 9 7 18 16 22 12 4 13 8 3 14 -7 4 -19 3 -26 -3
-10 -8 -13 -2 -13 26 0 20 -7 50 -15 67 -14 26 -14 30 0 35 21 9 7 27 -17 21
-11 -3 -34 3 -52 14 -41 24 -126 50 -139 42 -5 -3 -13 0 -17 7 -5 8 -32 13
-68 14 -47 1 -67 -4 -89 -20 -60 -45 -74 -132 -30 -200 24 -39 25 -42 7 -56
-9 -9 -20 -22 -23 -29 -5 -11 -9 -10 -20 3 -8 10 -17 15 -20 11 -4 -3 -16 2
-27 12 -12 11 -26 15 -37 10 -10 -4 -30 -8 -45 -10 -24 -3 -28 0 -28 19 0 13
11 35 24 49 20 22 21 25 6 24 -10 0 -26 -17 -36 -37 -23 -42 -39 -60 -54 -60
-8 0 -10 8 -6 23 4 12 8 29 10 37 2 8 8 15 14 15 6 0 17 6 24 13 10 10 9 12
-3 12 -8 0 -21 16 -28 35 -6 19 -28 53 -47 76 -18 22 -34 45 -34 49 0 5 -18
27 -40 49 -52 53 -98 66 -176 52 -32 -6 -88 -16 -124 -22 -233 -42 -393 -86
-545 -151 -27 -11 -66 -28 -85 -36 -19 -8 -39 -17 -44 -20 -5 -3 -6 1 -1 8 5
8 3 11 -6 8 -8 -3 -13 -12 -13 -21 1 -9 -3 -15 -8 -14 -6 1 -13 -4 -16 -12 -3
-8 0 -11 7 -7 6 4 11 1 11 -8 0 -8 -6 -16 -12 -19 -16 -5 -20 -172 -6 -200 14
-28 4 -30 -39 -9 -21 11 -63 27 -93 37 -30 10 -86 33 -125 50 -95 44 -193 76
-218 73 -33 -5 -29 16 11 55 31 30 53 41 122 58 47 12 105 32 130 44 25 12 61
26 80 29 19 4 64 16 100 27 36 10 83 24 105 30 22 7 65 20 95 30 30 9 89 23
130 29 176 28 236 43 325 80 11 5 27 11 35 13 10 3 6 8 -12 16 -52 20 -29 91
43 137 83 52 172 61 344 34z m2335 -114 c0 -3 -4 -8 -10 -11 -5 -3 -10 -1 -10
4 0 6 5 11 10 11 6 0 10 -2 10 -4z m-5369 -38 c6 -10 88 -25 194 -37 44 -5
100 -12 125 -15 25 -2 122 -10 215 -16 94 -6 197 -13 230 -16 33 -3 92 -7 130
-9 224 -9 506 -39 622 -66 27 -6 64 -13 83 -15 19 -3 44 -6 55 -8 11 -3 27 -5
35 -6 20 -1 -29 -29 -52 -30 -26 0 -90 -37 -117 -68 l-24 -26 7 24 c7 23 5 23
-24 -8 -17 -18 -28 -38 -24 -44 7 -11 -113 -7 -196 7 -33 5 -75 9 -175 19 -22
2 -89 6 -150 10 -60 4 -123 9 -140 12 -16 2 -70 6 -120 9 -49 3 -128 10 -175
15 -47 5 -137 12 -200 15 -63 3 -126 8 -140 10 -14 2 -65 7 -115 10 -49 3
-128 10 -175 15 -47 5 -92 9 -100 9 -16 0 -112 9 -175 17 -73 9 -159 15 -248
17 -86 1 -87 2 -68 20 12 12 34 20 59 21 22 0 38 4 36 8 -3 4 12 10 33 13 21
4 76 20 123 35 47 16 110 32 140 36 30 4 63 11 73 16 10 5 35 11 55 14 20 2
57 8 82 13 52 10 112 9 121 -1z m2159 -8 c0 -5 -4 -10 -10 -10 -5 0 -10 5 -10
10 0 6 5 10 10 10 6 0 10 -4 10 -10z m3205 -32 c-19 -11 -30 -5 -21 11 4 6 14
7 22 4 15 -5 14 -7 -1 -15z m8 -25 c3 -5 8 -98 12 -208 4 -110 9 -216 10 -235
2 -19 6 -150 9 -290 4 -140 9 -274 12 -298 5 -33 3 -41 -7 -38 -82 26 -192 56
-222 61 -31 5 -37 9 -32 23 4 9 8 28 9 42 1 20 -4 25 -24 25 -25 0 -60 -21
-60 -37 0 -4 12 -8 27 -8 29 0 24 -12 -7 -17 -11 -2 -20 2 -20 8 0 6 -7 9 -15
6 -8 -4 -17 -2 -20 4 -4 5 1 12 9 15 9 3 16 16 16 28 0 11 9 32 20 46 11 14
20 32 19 40 0 13 -1 13 -12 -1 -13 -17 -47 -32 -47 -21 0 14 60 63 70 57 5 -3
10 1 10 9 0 19 16 21 23 4 3 -7 6 -1 6 13 1 15 8 32 16 39 10 8 12 17 5 29 -6
13 -2 24 16 44 14 15 29 27 35 27 6 0 8 4 4 10 -7 11 25 51 37 44 4 -3 8 5 8
18 0 17 -3 19 -9 9 -6 -9 -10 -10 -16 -2 -4 7 -1 19 6 27 10 12 14 12 21 2 6
-9 7 -6 3 8 -4 17 2 24 35 39 37 17 41 22 35 44 -11 42 -14 248 -5 281 5 18 5
30 -1 30 -10 0 -12 73 -3 108 6 22 19 29 27 15z m-2593 -132 c-8 -5 -31 -12
-50 -16 -19 -4 -87 -25 -150 -47 -63 -21 -178 -60 -255 -85 -170 -55 -219 -74
-206 -82 6 -4 2 -20 -11 -39 -32 -50 -37 -46 -52 46 -3 19 -1 32 5 32 6 0 44
13 85 30 68 27 140 48 294 85 30 7 73 18 95 25 22 6 47 12 55 14 8 1 33 7 55
13 40 12 121 30 140 31 6 1 3 -2 -5 -7z m814 -35 c18 -7 43 -26 55 -42 l22
-28 -27 -24 c-20 -20 -23 -27 -12 -34 9 -7 6 -8 -9 -4 -95 24 -115 27 -108 16
3 -5 2 -10 -2 -10 -18 0 -34 42 -28 74 6 31 14 37 73 65 1 0 17 -5 36 -13z
m683 -42 c-3 -3 -12 -4 -19 -1 -8 3 -5 6 6 6 11 1 17 -2 13 -5z m448 -47 c60
-22 80 -47 83 -107 2 -31 -3 -73 -12 -97 -8 -22 -12 -43 -10 -46 3 -3 -2 -27
-12 -54 -9 -26 -18 -55 -19 -63 -10 -78 -20 -108 -45 -135 -15 -16 -34 -48
-41 -70 -7 -22 -17 -44 -22 -50 -11 -12 -5 30 17 130 23 101 32 315 16 354
-14 34 -25 39 -34 15 -4 -11 -12 -14 -24 -9 -55 22 -242 1 -543 -62 -83 -18
-139 -43 -139 -63 0 -16 19 -11 40 10 20 20 20 20 18 -4 -1 -14 -8 -23 -18
-22 -8 1 -14 -5 -12 -14 2 -8 0 -12 -4 -7 -4 4 -18 -10 -30 -31 -54 -90 -261
-148 -418 -117 -43 9 -88 27 -81 33 9 9 -17 32 -36 32 -11 0 -19 4 -19 8 0 9
-13 10 -145 13 -90 1 -97 2 -66 13 30 11 31 13 17 26 -11 8 -16 25 -14 43 3
33 18 41 103 54 57 9 54 9 120 -30 132 -79 278 -86 416 -19 52 26 119 106 119
144 0 23 6 26 78 42 91 19 355 64 427 72 28 3 57 7 64 10 8 3 35 7 60 10 25 3
47 7 49 9 6 6 87 -6 117 -18z m-5437 2 c15 0 21 -3 15 -6 -26 -10 -13 -25 16
-20 23 5 30 2 33 -11 2 -11 14 -17 33 -18 90 -4 185 -17 185 -26 0 -6 7 -8 15
-5 8 4 17 3 19 -2 3 -4 30 -3 61 2 44 8 58 8 65 -2 5 -9 9 -10 14 -2 4 6 13 8
19 4 7 -4 25 -6 41 -4 18 2 26 -1 22 -8 -4 -6 -3 -11 3 -11 5 0 12 6 14 13 4
9 8 9 15 -2 6 -8 17 -11 26 -8 9 4 16 2 16 -3 0 -11 72 -6 91 6 9 5 10 2 6 -9
-5 -13 -1 -17 18 -17 16 0 25 6 25 15 0 8 4 15 10 15 5 0 7 -7 4 -15 -5 -11 1
-15 25 -15 17 0 31 5 31 10 0 6 5 10 10 10 6 0 10 -6 10 -14 0 -16 61 -30 90
-21 10 3 21 1 25 -5 3 -6 10 -8 14 -5 5 2 23 0 42 -5 25 -7 38 -6 56 5 19 13
23 13 23 1 0 -16 69 -28 84 -15 5 5 14 2 20 -6 7 -9 38 -16 91 -19 44 -2 99
-8 121 -11 28 -5 44 -3 49 5 6 9 9 9 16 -1 6 -10 31 -13 95 -12 58 1 96 -3
114 -12 20 -11 30 -11 39 -2 8 8 11 8 11 -2 0 -9 10 -12 30 -9 17 3 30 1 30
-3 0 -3 48 -10 108 -13 59 -4 130 -9 158 -12 l51 -6 -1 -273 -1 -274 -25 5
c-25 4 -25 4 -2 -6 19 -8 21 -13 12 -30 -6 -11 -18 -20 -28 -20 -15 1 -15 2 2
15 11 8 17 16 13 16 -4 1 -12 2 -17 3 -6 0 -15 8 -20 16 -8 12 -10 12 -11 -5
-1 -11 -2 -26 -2 -32 1 -7 -5 -13 -13 -13 -8 0 -11 6 -8 15 7 17 -11 21 -21 5
-4 -6 -11 -8 -16 -4 -6 4 -6 11 2 20 6 7 15 12 19 9 5 -3 12 0 16 6 6 11 -33
10 -76 -2 -9 -2 -14 2 -12 9 4 20 -40 5 -57 -19 -7 -10 -18 -19 -24 -19 -6 0
0 11 12 24 l23 24 -23 7 c-14 5 -25 3 -27 -4 -6 -17 -42 -13 -42 4 0 19 -66
21 -72 3 -3 -8 -9 -4 -17 10 -7 13 -21 22 -36 22 -14 0 -25 5 -25 10 0 6 5 10
11 10 5 0 7 5 3 11 -4 8 -9 7 -15 -2 -7 -11 -11 -12 -17 -1 -7 10 -14 11 -35
1 -15 -7 -27 -16 -27 -21 0 -4 -8 -8 -17 -7 -11 0 -13 3 -5 6 31 12 6 22 -47
18 -54 -3 -60 -2 -66 18 l-8 22 -4 -22 c-2 -13 -9 -23 -15 -23 -6 0 -8 10 -4
24 4 15 0 28 -9 36 -20 17 -73 3 -80 -21 -4 -10 -11 -19 -17 -19 -6 0 -6 6 2
15 15 18 12 23 -16 28 -10 1 -24 6 -29 9 -6 4 -17 3 -25 -3 -23 -14 -43 -11
-36 6 3 8 2 15 -2 15 -15 0 -62 -25 -62 -33 0 -5 -7 -2 -15 7 -9 8 -22 13 -30
10 -8 -4 -15 -2 -15 4 0 6 6 13 13 15 9 4 9 6 -1 6 -7 1 -15 -6 -18 -14 -9
-22 -24 -18 -24 5 0 15 -7 20 -25 20 -16 0 -25 -6 -25 -15 0 -9 -9 -15 -21
-15 -19 0 -19 1 -5 16 20 19 21 31 2 15 -8 -7 -17 -8 -20 -3 -3 5 -18 12 -32
15 -21 4 -34 -2 -57 -27 -20 -22 -26 -25 -18 -9 16 32 14 43 -11 43 -13 0 -47
3 -75 6 -35 4 -53 2 -53 -5 0 -6 -4 -11 -10 -11 -5 0 -10 6 -10 13 0 13 -101
22 -247 21 -46 -1 -83 2 -83 6 0 4 -30 10 -67 13 -38 4 -106 11 -153 17 -47 6
-97 12 -111 13 -27 2 -27 2 -27 92 0 50 -3 119 -6 155 -3 36 -8 110 -11 165
-3 55 -8 109 -11 119 -5 15 -3 18 11 13 9 -4 29 -7 43 -8z m4273 -57 c-7 -2
-18 1 -23 6 -8 8 -4 9 13 5 13 -4 18 -8 10 -11z m46 -8 c-3 -3 -12 -4 -19 -1
-8 3 -5 6 6 6 11 1 17 -2 13 -5z m-2067 -94 c19 -17 46 -33 60 -37 14 -3 30
-9 35 -13 6 -4 44 -22 85 -40 41 -17 98 -42 125 -54 28 -13 81 -36 118 -52 51
-22 73 -37 84 -59 9 -16 26 -45 40 -63 13 -17 21 -37 18 -42 -4 -6 -1 -17 5
-25 7 -8 8 -15 3 -15 -5 0 -10 -13 -10 -30 0 -16 5 -30 10 -30 6 0 6 -5 0 -12
-6 -7 -9 -24 -8 -38 1 -14 6 -91 10 -172 l7 -148 -34 0 c-19 0 -61 8 -94 19
-52 17 -99 30 -129 36 -5 2 -32 10 -58 19 -26 9 -54 16 -62 16 -8 0 -41 9 -72
19 -32 11 -79 23 -105 27 -26 3 -54 11 -63 18 -20 15 -26 107 -28 425 -1 192
2 256 11 259 7 2 10 8 6 13 -12 19 14 8 46 -21z m3800 -3 c0 -14 -6 -24 -15
-24 -18 0 -19 13 -2 32 16 19 17 19 17 -8z m-1820 -22 c42 -6 46 -10 27 -30
-17 -16 -32 -20 -22 -6 3 5 1 12 -4 15 -5 4 -12 -2 -14 -11 -4 -15 -6 -15 -12
4 -6 19 -10 21 -28 12 -17 -10 -19 -9 -12 7 4 11 8 25 8 33 0 10 4 9 13 -3 7
-10 27 -19 44 -21z m-1394 -34 c-9 -10 -16 -23 -16 -29 0 -7 -8 -5 -19 5 -16
13 -18 21 -9 36 7 15 12 16 18 7 6 -9 11 -6 21 11 12 21 14 22 17 6 2 -10 -3
-26 -12 -36z m3169 9 c-5 -8 -11 -8 -17 -2 -6 6 -18 8 -27 6 -9 -3 -5 1 9 10
26 15 48 7 35 -14z m-1681 4 c22 -9 10 -24 -19 -24 -18 0 -23 4 -19 15 7 16
14 18 38 9z m41 -14 c3 -5 1 -10 -4 -10 -6 0 -11 5 -11 10 0 6 2 10 4 10 3 0
8 -4 11 -10z m-1484 -28 c-14 -26 -14 -35 -1 -27 15 9 12 -17 -4 -38 -11 -14
-15 -15 -19 -5 -3 8 -6 5 -7 -7 -1 -18 -2 -18 -11 -3 -11 19 12 86 34 100 17
10 20 2 8 -20z m3094 19 c-2 -5 -16 -11 -30 -13 -18 -4 -23 -2 -16 6 11 13 54
19 46 7z m-3071 -95 c-6 -15 -24 -23 -24 -11 0 8 24 34 28 30 1 -1 0 -10 -4
-19z m-7 -58 c-16 -10 -21 -2 -13 19 6 15 9 15 16 3 6 -9 5 -17 -3 -22z m509
-15 c-10 -10 -19 5 -10 18 6 11 8 11 12 0 2 -7 1 -15 -2 -18z m34 3 c0 -3 -4
-8 -10 -11 -5 -3 -10 -1 -10 4 0 6 5 11 10 11 6 0 10 -2 10 -4z m2380 -70 c0
-3 -4 -8 -10 -11 -5 -3 -10 -1 -10 4 0 6 5 11 10 11 6 0 10 -2 10 -4z m-2933
-138 c-3 -8 -6 -5 -6 6 -1 11 2 17 5 13 3 -3 4 -12 1 -19z m2863 -23 c0 -8 -7
-15 -16 -15 -14 0 -14 3 -4 15 7 8 14 15 16 15 2 0 4 -7 4 -15z m-10 -61 c0
-8 -4 -14 -10 -14 -5 0 -10 9 -10 21 0 11 5 17 10 14 6 -3 10 -13 10 -21z
m-2853 -106 c-2 -24 -4 -5 -4 42 0 47 2 66 4 43 2 -24 2 -62 0 -85z m2963 102
c0 -5 -4 -10 -10 -10 -5 0 -10 5 -10 10 0 6 5 10 10 10 6 0 10 -4 10 -10z
m-4683 -6 c-3 -3 -12 -4 -19 -1 -8 3 -5 6 6 6 11 1 17 -2 13 -5z m-1343 -13
c6 -9 37 -15 126 -26 25 -3 56 -8 70 -11 14 -4 32 -8 40 -8 33 -3 116 -18 130
-23 8 -4 24 -7 35 -8 118 -12 148 -17 170 -25 14 -5 60 -12 102 -15 42 -3 79
-7 83 -10 3 -2 44 -9 91 -15 46 -6 120 -15 164 -21 103 -13 107 -14 126 -23 8
-4 38 -8 65 -10 27 -3 49 -5 49 -6 0 -1 9 -3 20 -5 11 -1 68 -10 127 -19 97
-16 110 -16 137 -1 29 14 32 14 52 -6 25 -25 53 -32 122 -32 26 0 47 -3 47 -7
0 -8 150 -39 219 -45 24 -2 65 -9 90 -14 25 -6 87 -16 138 -23 l91 -12 1 -63
c0 -35 3 -68 6 -73 10 -17 -5 -50 -23 -50 -14 0 -14 2 -3 9 9 6 -2 9 -30 9
-24 1 -49 -4 -55 -9 -8 -7 -14 -7 -18 0 -4 6 -21 8 -38 4 -26 -5 -30 -4 -25
10 8 20 -4 22 -22 5 -10 -11 -14 -9 -22 5 -8 14 -18 17 -41 12 -21 -5 -28 -4
-24 4 4 6 2 11 -3 11 -6 0 -11 -7 -11 -15 0 -18 -29 -10 -48 13 -9 12 -15 13
-23 5 -11 -11 -49 -6 -49 6 0 4 -18 5 -41 3 -22 -2 -59 3 -82 11 -23 9 -62 18
-86 21 -24 3 -48 11 -53 18 -6 11 -8 11 -8 0 0 -9 -5 -10 -19 -2 -12 6 -17 17
-14 29 4 16 1 19 -18 14 -18 -5 -21 -3 -16 10 7 19 -9 23 -16 5 -4 -8 -8 -4
-12 10 -9 26 -14 27 -41 7 -24 -18 -54 -21 -36 -3 16 16 15 28 -2 28 -8 0 -13
-11 -13 -26 0 -28 -18 -52 -30 -40 -4 4 -1 11 7 16 13 8 12 10 -3 10 -14 0
-16 4 -8 19 9 16 8 18 -9 14 -11 -3 -20 -14 -20 -24 0 -11 -4 -19 -10 -19 -14
0 -13 23 2 38 17 17 1 28 -21 15 -13 -8 -22 -8 -29 -1 -8 8 -20 3 -42 -15 -17
-15 -37 -24 -46 -20 -12 4 -11 8 7 17 35 18 23 31 -33 34 -29 2 -57 7 -63 12
-6 5 -30 7 -53 6 -26 -2 -42 1 -43 8 0 6 -4 2 -8 -9 -8 -19 -8 -19 -20 3 -12
23 -61 32 -61 11 0 -8 -4 -8 -14 0 -8 7 -30 13 -48 15 -19 2 -40 6 -47 10 -6
4 -16 4 -22 0 -6 -3 -14 -2 -18 4 -10 16 -137 18 -156 2 -12 -10 -15 -10 -15
4 0 9 -4 16 -10 16 -5 0 -10 -7 -10 -15 0 -8 -5 -15 -11 -15 -6 0 -9 7 -6 15
8 19 -59 32 -84 16 -24 -15 -52 -14 -43 1 5 8 -5 9 -34 5 -26 -3 -42 -1 -42 5
0 6 -15 8 -35 6 -19 -2 -35 -1 -35 4 0 4 -15 5 -32 3 -26 -4 -29 -3 -13 4 l20
10 -20 1 c-11 1 -32 4 -48 6 -15 3 -37 0 -48 -7 -12 -6 -19 -7 -16 -2 3 4 -1
13 -8 20 -10 10 -14 9 -19 -2 -8 -21 -46 -19 -46 3 0 13 -2 14 -9 3 -6 -9 -10
-10 -16 -2 -5 9 -10 9 -20 1 -12 -10 -21 -9 -62 6 -10 4 -36 9 -58 11 -70 7
-359 52 -383 59 -24 7 -2 24 31 24 40 0 242 36 367 65 69 17 77 17 84 6z
m3623 -73 c-3 -8 -6 -5 -6 6 -1 11 2 17 5 13 3 -3 4 -12 1 -19z m53 -68 c0 -5
-4 -10 -10 -10 -5 0 -10 5 -10 10 0 6 5 10 10 10 6 0 10 -4 10 -10z m-603 -32
c-3 -7 -5 -2 -5 12 0 14 2 19 5 13 2 -7 2 -19 0 -25z m623 -8 c0 -5 -9 -6 -20
-3 -11 3 -20 9 -20 13 0 5 9 6 20 3 11 -3 20 -9 20 -13z m-4367 -35 c26 -4 53
-13 60 -19 7 -7 30 -11 52 -9 22 1 78 -5 125 -13 101 -18 117 -21 240 -34 52
-6 102 -14 110 -17 8 -4 29 -8 45 -9 65 -4 151 -17 166 -25 8 -4 58 -11 109
-14 52 -4 98 -9 102 -12 5 -2 34 -6 66 -8 31 -2 93 -13 137 -24 44 -12 90 -21
102 -21 11 0 78 -11 148 -25 69 -13 151 -25 181 -26 30 -1 54 -6 54 -11 0 -4
17 -8 38 -8 21 0 42 -4 48 -9 5 -5 37 -12 71 -14 34 -3 66 -8 71 -11 12 -7
153 -32 242 -42 36 -4 74 -9 85 -11 131 -23 195 -34 222 -38 18 -2 50 -8 70
-14 21 -5 70 -12 108 -16 39 -4 100 -15 136 -26 36 -11 70 -19 75 -18 14 3
110 -12 122 -20 6 -4 15 -38 21 -76 5 -39 15 -101 22 -138 l12 -69 -29 -24
c-37 -31 -69 -50 -60 -36 3 6 2 13 -3 17 -11 6 -51 -29 -51 -45 0 -5 -4 -10
-10 -10 -5 0 -10 7 -10 16 0 9 -6 14 -12 11 -7 -2 -12 -10 -10 -16 3 -13 -8
-14 -28 -1 -11 7 -11 10 -2 10 7 0 10 5 7 10 -10 16 -23 12 -30 -10 -3 -11
-11 -20 -17 -20 -5 0 -8 6 -5 13 19 50 18 57 -2 57 -14 0 -19 -5 -15 -15 8
-19 -13 -45 -35 -45 -14 0 -14 2 -1 10 13 9 13 11 0 20 -10 6 -17 5 -23 -5 -4
-8 -15 -15 -24 -15 -13 0 -12 5 7 24 l23 25 -62 -2 c-34 -1 -63 2 -65 8 -3 6
-9 4 -15 -5 -6 -8 -11 -10 -11 -4 0 19 -122 35 -251 33 -70 -1 -130 1 -135 4
-5 2 -72 8 -149 11 -155 8 -197 13 -207 29 -3 6 -15 12 -25 13 -10 2 -40 7
-66 12 -26 5 -50 5 -53 0 -7 -11 -44 -10 -44 2 0 6 -9 10 -19 10 -11 0 -23 4
-26 10 -3 5 -19 7 -35 3 -19 -3 -30 -1 -30 6 0 7 -14 9 -40 6 -25 -3 -40 -1
-40 6 0 5 -8 9 -17 7 -10 -1 -23 0 -28 4 -6 4 -44 9 -84 13 -41 3 -82 10 -91
15 -10 5 -20 7 -22 4 -3 -2 -16 0 -29 5 -13 5 -46 12 -73 15 -27 4 -53 9 -56
11 -4 3 -25 7 -46 10 -21 2 -50 7 -64 10 -14 3 -38 6 -55 7 -16 0 -35 5 -42
10 -7 5 -22 9 -35 7 -13 -1 -30 1 -38 4 -42 15 -81 16 -87 2 -5 -13 -7 -14
-17 -1 -16 19 -60 25 -75 9 -13 -14 -35 -8 -26 8 4 5 -3 9 -14 9 -12 0 -21 -6
-21 -12 0 -10 -2 -10 -8 -1 -4 7 -20 10 -40 7 -21 -3 -32 -1 -32 7 0 7 -11 10
-30 7 -20 -3 -30 0 -30 9 0 8 -12 13 -32 14 -48 0 -111 6 -128 10 -8 2 -14 -2
-12 -8 4 -22 -15 -14 -21 8 -4 14 -11 20 -21 16 -8 -3 -18 -2 -21 3 -3 5 -16
8 -28 6 -12 -2 -27 1 -33 6 -7 5 -16 8 -20 6 -19 -4 -94 14 -94 23 0 6 -4 8
-10 4 -5 -3 -20 -3 -34 1 -23 5 -24 9 -20 57 2 29 5 123 5 210 1 157 1 159 23
154 11 -3 43 -9 69 -12z m3063 -50 c-3 -13 -1 -25 4 -27 6 -2 11 -38 13 -80 1
-42 5 -74 9 -72 3 2 9 -22 13 -53 8 -71 14 -93 25 -93 4 0 4 17 -1 37 -4 21
-6 39 -4 41 4 4 25 -66 25 -85 0 -7 29 -29 65 -50 35 -20 63 -38 61 -40 -1 -2
-25 4 -52 12 -27 8 -61 15 -75 15 -14 0 -33 8 -42 18 -24 27 -48 107 -50 170
-1 31 -6 60 -12 64 -11 8 -10 147 1 181 6 19 7 19 16 3 5 -10 7 -28 4 -41z
m1321 24 c1 -14 0 -17 -3 -6 -3 9 -10 17 -15 17 -5 0 -9 5 -9 11 0 22 25 2 27
-22z m-3167 7 c0 -3 -4 -8 -10 -11 -5 -3 -10 -1 -10 4 0 6 5 11 10 11 6 0 10
-2 10 -4z m190 -25 c0 -5 -7 -12 -16 -15 -14 -5 -15 -4 -4 9 14 17 20 19 20 6z
m21 -24 c-10 -9 -11 -8 -5 6 3 10 9 15 12 12 3 -3 0 -11 -7 -18z m2974 -7 c-3
-5 -10 -10 -16 -10 -5 0 -9 5 -9 10 0 6 7 10 16 10 8 0 12 -4 9 -10z m-2760
-9 c3 -5 1 -12 -5 -16 -5 -3 -10 1 -10 9 0 18 6 21 15 7z m2785 -23 c0 -11
-28 -10 -35 1 -3 6 4 9 15 8 11 -1 20 -5 20 -9z m-749 -50 c1 -7 3 -62 5 -123
4 -109 5 -125 17 -155 3 -8 8 -34 11 -57 7 -46 -6 -57 -24 -22 -9 15 -8 24 2
37 7 9 8 13 2 9 -13 -7 -41 184 -30 201 3 6 2 12 -3 14 -6 1 -13 27 -17 56 -6
49 -5 52 15 52 11 0 21 -6 22 -12z m773 3 c4 -5 2 -20 -2 -32 l-9 -23 -12 22
c-12 22 -8 42 9 42 5 0 11 -4 14 -9z m-2268 -21 c8 0 14 -5 14 -11 0 -12 -40
-2 -55 14 -7 7 -4 8 8 3 10 -3 25 -6 33 -6z m2284 -50 c0 -5 -2 -10 -4 -10 -3
0 -8 5 -11 10 -3 6 -1 10 4 10 6 0 11 -4 11 -10z m20 -34 c0 -3 -4 -8 -10 -11
-5 -3 -10 -1 -10 4 0 6 5 11 10 11 6 0 10 -2 10 -4z m857 -12 c-3 -3 -12 -4
-19 -1 -8 3 -5 6 6 6 11 1 17 -2 13 -5z m-847 -30 c0 -8 -5 -12 -10 -9 -6 4
-8 11 -5 16 9 14 15 11 15 -7z m860 -76 c0 -5 -6 -8 -14 -8 -8 0 -17 -6 -20
-12 -5 -10 -7 -10 -12 0 -4 8 -10 9 -17 4 -7 -5 -25 -12 -42 -15 -16 -3 -43
-11 -60 -18 -16 -7 -39 -14 -50 -15 -44 -5 -71 -11 -80 -15 -6 -3 -55 -16
-110 -30 -55 -13 -103 -28 -107 -34 -4 -5 -8 3 -8 19 0 21 4 27 15 22 8 -3 21
4 29 16 12 16 27 22 66 24 54 2 110 20 110 35 0 5 5 9 11 9 5 0 7 -5 3 -11 -8
-14 56 -2 71 14 7 7 4 8 -8 4 -11 -4 -16 -3 -12 4 4 6 13 8 20 5 7 -2 22 2 33
10 14 10 23 11 27 4 5 -7 12 -5 20 7 13 17 14 16 8 -5 -4 -18 -2 -21 11 -16 9
3 16 12 16 20 0 8 5 14 11 14 6 0 9 -7 5 -15 -8 -23 4 -18 32 12 l24 27 14
-25 c7 -13 13 -27 14 -31z m-637 -50 c1 -9 -2 -16 -8 -15 -5 1 -8 10 -7 20 2
9 -1 17 -6 17 -15 0 -21 37 -8 50 8 8 13 3 19 -22 5 -18 9 -41 10 -50z m-97
-43 c14 -33 37 -91 51 -130 14 -38 29 -74 34 -79 5 -6 9 -16 9 -24 0 -8 41
-97 90 -199 50 -101 90 -188 90 -194 0 -5 -8 -9 -18 -9 -17 0 -43 45 -79 140
-17 46 -27 67 -113 240 -75 152 -84 168 -113 212 -16 25 -17 47 -1 96 8 25 25
7 50 -53z m724 45 c0 -5 -5 -10 -11 -10 -5 0 -7 5 -4 10 3 6 8 10 11 10 2 0 4
-4 4 -10z m9 -106 c1 -37 -2 -43 -24 -48 -14 -4 -23 -11 -20 -16 3 -6 -1 -7
-10 -4 -8 4 -21 2 -28 -4 -11 -9 -35 -17 -137 -42 -19 -5 -75 -21 -124 -35
-49 -15 -92 -23 -96 -18 -6 7 -40 100 -40 110 0 2 10 3 23 3 22 0 55 9 252 71
180 57 189 59 197 40 4 -9 7 -35 7 -57z m-2149 -24 c80 -29 239 -54 410 -65
58 -4 106 -8 108 -10 2 -2 10 -47 18 -101 8 -55 19 -113 23 -131 8 -29 5 -36
-25 -68 -18 -20 -36 -51 -40 -70 -3 -19 -7 -35 -8 -35 0 0 -28 -5 -61 -11
-183 -31 -305 -28 -332 8 -7 9 -24 23 -39 32 -19 11 -31 32 -41 66 -24 87 -43
159 -52 200 -10 46 -41 199 -41 203 0 3 50 -8 80 -18z m4519 -72 c22 -46 47
-108 56 -138 9 -30 21 -66 27 -80 5 -14 12 -68 15 -121 l6 -96 -52 -1 c-35 -1
-61 -8 -82 -22 l-30 -22 -38 26 c-20 14 -45 26 -55 26 -17 0 -18 10 -14 143 4
121 8 154 31 220 29 84 65 147 84 147 7 0 30 -37 52 -82z m-7835 47 c-6 -15
-4 -16 104 -34 34 -6 90 -16 125 -22 59 -10 167 -30 232 -44 17 -3 48 -8 70
-11 22 -3 74 -11 115 -19 41 -8 95 -17 120 -20 25 -4 108 -18 185 -32 77 -14
157 -27 179 -29 68 -7 300 -44 331 -54 17 -5 59 -12 95 -16 36 -4 74 -8 86 -9
11 -2 52 -10 90 -18 98 -22 364 -67 539 -92 22 -3 72 -12 110 -20 155 -31 234
-44 307 -50 92 -9 111 -23 65 -50 -18 -10 -36 -24 -40 -32 -7 -11 -11 -11 -23
2 -9 8 -21 15 -27 15 -7 0 -6 -4 2 -9 12 -8 8 -11 -15 -16 -16 -4 -43 -13 -61
-21 -17 -8 -35 -14 -40 -14 -5 0 -15 -6 -21 -12 -7 -7 -72 -21 -145 -31 -175
-24 -223 -27 -277 -16 -25 4 -66 10 -92 13 -26 2 -62 9 -80 15 -18 5 -62 15
-98 21 -36 6 -83 16 -105 21 -74 17 -310 59 -370 65 -33 4 -71 11 -85 16 -14
5 -63 12 -110 14 -67 3 -88 8 -100 23 -19 22 -47 33 -55 21 -8 -13 -55 -13
-55 0 0 6 -9 10 -20 10 -11 0 -30 6 -41 13 -17 10 -23 10 -26 0 -3 -7 -14 -13
-26 -13 -14 0 -18 3 -10 8 17 11 -1 35 -23 30 -11 -2 -18 -10 -17 -16 4 -19
-8 -14 -32 13 -18 19 -24 21 -29 10 -8 -21 -48 -19 -44 1 2 10 -3 19 -9 21 -7
3 -13 -2 -13 -10 0 -8 -9 -17 -20 -20 -13 -3 -20 0 -20 10 0 9 6 13 15 9 8 -3
15 -1 15 5 0 7 -12 9 -29 7 -18 -3 -28 0 -24 6 4 6 -1 6 -13 2 -10 -5 -26 -8
-34 -9 -8 0 -20 -3 -25 -8 -6 -4 -17 -4 -24 0 -11 7 -9 11 5 20 17 9 15 10
-13 11 -17 0 -35 -5 -38 -10 -5 -8 -11 -7 -21 1 -8 6 -26 9 -40 6 -14 -2 -38
1 -52 9 -15 8 -44 11 -69 9 -27 -3 -43 0 -43 6 0 6 -7 8 -16 5 -9 -3 -20 -3
-26 0 -5 3 -40 8 -76 9 -37 2 -67 4 -67 5 0 3 -40 9 -103 14 -35 3 -67 8 -72
11 -9 6 -41 10 -170 25 -52 5 -115 13 -140 16 -25 3 -66 8 -92 10 -54 6 -112
22 -86 23 10 1 60 15 112 31 52 17 132 39 178 49 90 20 238 72 276 97 12 8 26
22 29 30 3 8 9 14 14 14 4 0 6 -7 3 -15z m4649 -9 c4 -9 -4 -13 -24 -14 -45
-1 -36 18 12 27 4 0 9 -5 12 -13z m-63 -10 c0 -14 -48 -32 -58 -21 -3 3 2 5
10 5 9 0 18 7 22 15 7 19 26 20 26 1z m-576 -169 c5 -26 4 -37 -3 -33 -5 4
-15 -2 -20 -13 -7 -12 -18 -17 -29 -14 -15 3 -19 15 -21 49 0 25 -6 64 -11 87
-14 63 -13 77 9 77 11 0 23 5 27 12 7 11 32 -72 48 -165z m3426 143 c0 -5 -7
-10 -15 -10 -8 0 -15 5 -15 10 0 6 7 10 15 10 8 0 15 -4 15 -10z m-2980 -21
c-30 -10 -63 -17 -72 -15 -9 2 -18 0 -20 -5 -2 -6 -15 -11 -29 -13 -13 -1 -30
-5 -36 -9 -6 -4 -18 -4 -27 -1 -9 3 -16 1 -16 -5 0 -7 -6 -11 -12 -10 -7 1
-20 0 -28 -4 -68 -25 -123 -35 -104 -18 11 10 203 67 289 86 91 20 120 17 55
-6z m1020 1 c0 -5 -2 -10 -4 -10 -3 0 -8 5 -11 10 -3 6 -1 10 4 10 6 0 11 -4
11 -10z m1973 -24 c4 -10 -2 -13 -19 -12 -22 1 -23 2 -7 14 21 15 20 15 26 -2z
m-2735 -59 c12 -28 22 -55 22 -58 0 -11 -299 -109 -331 -109 -9 0 -35 -7 -58
-15 -41 -14 -41 -14 -41 10 0 30 -20 77 -37 88 -20 12 -7 24 34 32 21 3 72 17
113 30 105 34 242 73 260 74 9 0 24 -20 38 -52z m-578 -21 c0 -2 -9 -6 -20 -9
-11 -3 -18 -1 -14 4 5 9 34 13 34 5z m-1530 -56 c0 -5 -5 -10 -11 -10 -5 0 -7
5 -4 10 3 6 8 10 11 10 2 0 4 -4 4 -10z m1560 -18 c0 -4 13 -13 29 -20 20 -9
34 -25 41 -48 15 -43 3 -61 -49 -70 -20 -4 -79 -24 -131 -45 -96 -40 -117 -46
-90 -29 13 8 12 10 -2 10 -33 0 -21 51 23 105 47 57 74 78 103 80 12 0 30 6
41 13 23 13 35 15 35 4z m4249 -25 c6 -16 3 -49 -10 -103 -11 -43 -21 -86 -23
-95 -3 -24 -86 -189 -115 -229 -35 -50 -93 -110 -106 -110 -5 0 -16 -9 -23
-20 -14 -24 -12 -27 52 -75 36 -27 68 -69 107 -140 19 -34 52 -155 45 -163 -3
-2 -17 -1 -32 2 -21 6 -25 11 -21 32 3 18 1 24 -9 20 -8 -3 -11 0 -7 10 3 7 0
14 -6 14 -7 0 -14 -7 -17 -15 -4 -8 -12 -15 -20 -15 -8 0 -14 -4 -14 -9 0 -5
9 -7 20 -4 12 3 20 0 20 -7 0 -18 -75 -5 -125 22 -105 55 -181 106 -228 152
l-37 37 22 30 c17 22 29 28 48 25 36 -6 99 32 121 74 21 39 24 95 8 137 -9 25
-12 26 -23 11 -10 -14 -12 -4 -14 54 -2 39 -7 78 -12 87 -13 25 11 69 73 134
30 31 58 57 61 57 3 0 27 15 53 33 59 42 139 76 176 77 20 0 30 -6 36 -23z
m-1119 -6 c0 -6 -4 -13 -10 -16 -5 -3 -10 -15 -10 -26 0 -11 -4 -17 -10 -14
-14 8 -13 38 2 53 14 14 28 16 28 3z m-117 -45 c6 -15 -29 -33 -40 -22 -4 3
-1 6 5 6 7 0 12 7 12 15 0 19 16 20 23 1z m-1692 -74 l16 -29 -54 -16 c-29
-10 -73 -17 -97 -17 -42 0 -93 -25 -135 -67 -14 -15 -16 -14 -22 8 -12 43 -10
47 39 64 26 10 83 33 127 51 44 19 87 34 95 34 8 0 22 -13 31 -28z m-397 -84
c-10 -15 -33 30 -26 54 2 10 -1 18 -7 18 -7 0 -9 5 -5 12 5 8 14 -3 26 -30 11
-23 16 -47 12 -54z m2216 37 c67 -9 283 -112 276 -132 -3 -7 1 -36 9 -65 14
-56 51 -98 87 -98 17 0 19 -4 13 -22 -4 -13 -9 -38 -12 -55 -3 -18 -7 -33 -9
-33 -1 0 -22 13 -46 29 -38 26 -74 36 -115 32 -7 -1 -22 -10 -34 -22 -20 -20
-23 -20 -62 -5 -23 9 -55 27 -72 40 -28 22 -29 28 -30 102 -1 44 -7 90 -15
104 -12 24 -67 80 -79 80 -3 1 -17 10 -30 21 -21 17 -22 22 -10 29 13 9 25 8
129 -5z m-3146 -138 c34 -33 83 -79 110 -103 49 -42 49 -44 35 -71 -28 -55
-37 -54 -98 3 -64 60 -170 140 -238 180 l-47 27 23 18 c13 11 35 20 50 20 49
3 72 6 78 13 4 4 11 -1 17 -11 5 -10 37 -44 70 -76z m2947 68 c13 -13 30 -25
37 -25 6 0 12 -4 12 -9 0 -6 19 -21 42 -35 l42 -25 -29 -7 c-16 -4 -43 -15
-60 -25 -16 -9 -46 -20 -65 -24 -19 -4 -41 -11 -50 -16 -20 -12 -393 -135
-445 -148 -57 -13 -133 -37 -180 -55 -22 -8 -65 -25 -95 -36 -30 -12 -82 -29
-115 -37 -33 -9 -69 -20 -80 -25 -37 -16 -178 -58 -194 -58 -9 0 -34 -9 -56
-20 -22 -11 -45 -20 -51 -20 -13 0 -103 -26 -149 -43 -16 -7 -34 -11 -39 -9
-4 1 -13 -1 -20 -6 -12 -11 -187 -67 -198 -64 -4 1 -45 -12 -90 -28 -46 -16
-101 -34 -123 -39 -22 -5 -87 -26 -144 -46 l-103 -36 -62 57 c-114 108 -176
174 -176 190 0 19 29 82 41 89 10 7 62 -5 55 -12 -5 -5 56 -60 118 -108 l34
-26 133 35 c160 41 327 92 351 106 10 5 26 10 35 10 10 0 52 11 93 24 41 13
122 38 180 56 58 18 157 49 220 70 63 21 142 45 175 54 33 10 69 22 80 27 11
5 74 25 140 45 66 20 140 42 165 49 25 7 79 23 120 35 41 13 125 43 185 67 63
26 126 45 146 45 26 -1 43 6 60 24 28 30 31 30 60 -1z m622 -33 c46 -51 36
-115 -19 -120 -40 -4 -68 27 -67 74 1 19 7 41 13 49 17 20 53 19 73 -3z
m-2581 -14 c-12 -12 -35 -1 -27 12 3 5 13 6 21 3 10 -4 12 -9 6 -15z m2800
-16 c12 -12 19 -66 11 -78 -5 -5 -25 -20 -45 -33 -37 -22 -74 -22 -89 1 -11
17 8 108 27 127 17 17 22 17 54 4 19 -8 38 -17 42 -21z m-3014 -50 c-2 -9 -21
-25 -43 -37 -22 -12 -71 -38 -109 -58 -38 -21 -84 -49 -103 -63 l-33 -25 -35
28 c-19 15 -35 31 -35 35 0 3 30 20 66 37 36 17 77 39 92 49 15 10 47 27 72
37 25 11 56 28 70 38 24 18 25 18 43 -4 10 -12 17 -29 15 -37z m-987 -4 c0 -7
23 -31 51 -53 74 -57 206 -153 218 -157 5 -2 6 -17 1 -40 -6 -26 -5 -38 3 -41
7 -3 6 -10 -4 -22 -10 -12 -11 -20 -4 -22 6 -2 9 -16 7 -31 -2 -15 5 -104 15
-198 l18 -170 -61 61 c-33 33 -92 82 -130 107 -98 65 -99 68 -109 218 -6 89
-23 247 -30 275 -17 70 -16 85 4 85 11 0 20 -6 21 -12z m4037 -84 c42 -12 20
-114 -24 -114 -16 0 -34 31 -34 60 0 24 17 60 28 60 4 0 17 -3 30 -6z m-178
-33 c0 -12 -20 -25 -27 -18 -7 7 6 27 18 27 5 0 9 -4 9 -9z m44 -68 c18 -52
12 -67 -31 -78 -56 -14 -90 75 -41 109 38 27 55 20 72 -31z m-489 -73 c22 -11
50 -20 62 -20 22 0 30 -17 23 -45 -1 -5 -9 -40 -18 -77 -13 -57 -19 -68 -36
-69 -12 -1 -39 -2 -62 -3 l-41 -2 8 35 c5 20 9 73 9 119 0 45 4 82 8 82 4 0
25 -9 47 -20z m-3700 -10 c3 -5 1 -10 -4 -10 -6 0 -11 5 -11 10 0 6 2 10 4 10
3 0 8 -4 11 -10z m1125 0 c0 -5 -5 -10 -11 -10 -5 0 -7 5 -4 10 3 6 8 10 11
10 2 0 4 -4 4 -10z m-419 -68 c8 -2 19 -9 24 -15 11 -14 62 -48 70 -47 3 0 12
-6 21 -14 8 -8 22 -12 30 -9 14 5 15 3 4 -18 -10 -20 -10 -22 1 -11 19 18 47
15 51 -5 2 -10 -3 -24 -12 -31 -12 -10 -10 -10 11 -3 22 8 30 6 47 -12 26 -29
16 -58 -15 -46 -13 5 -23 13 -23 19 0 5 -5 10 -10 10 -20 0 -179 113 -173 123
4 6 0 8 -9 4 -17 -6 -84 37 -82 53 1 6 2 20 3 33 l2 22 22 -25 c13 -14 30 -26
38 -28z m-811 -2 c0 -13 -7 -20 -20 -20 -25 0 -25 9 -2 26 22 17 22 17 22 -6z
m4225 -16 c19 -5 26 -19 44 -89 19 -77 27 -135 17 -135 -2 0 -20 7 -39 15 -20
8 -50 15 -68 15 -26 0 -30 3 -24 18 13 35 27 127 23 159 -3 26 -1 32 10 28 8
-3 24 -8 37 -11z m-5519 -51 c-11 -11 -17 4 -9 23 7 18 8 18 11 1 2 -10 1 -21
-2 -24z m-2946 -13 c0 -5 7 -7 15 -4 8 4 15 1 15 -5 0 -6 -9 -11 -20 -11 -13
0 -22 -9 -26 -25 -7 -29 -30 -50 -38 -36 -4 5 -2 12 3 15 5 4 7 22 4 41 -5 33
-4 35 21 35 14 0 26 -4 26 -10z m169 -36 c28 -4 53 -10 56 -14 2 -4 -15 -13
-38 -20 -23 -7 -62 -19 -86 -27 -57 -18 -81 -11 -56 17 16 18 16 20 1 26 -9 3
-23 1 -31 -6 -13 -11 -14 -10 -9 4 5 12 14 16 30 13 16 -3 24 0 24 10 0 8 -4
11 -10 8 -5 -3 -10 -2 -10 3 0 18 12 20 44 7 18 -8 56 -17 85 -21z m2767 11
c-8 -8 -21 -15 -28 -15 -8 1 -6 6 6 15 26 20 42 19 22 0z m864 -72 c-10 -16
-11 -15 -6 7 3 14 6 32 7 40 1 8 4 5 6 -7 2 -12 -1 -30 -7 -40z m-3088 40 c-6
-2 -10 -9 -6 -14 3 -5 -2 -9 -10 -9 -10 0 -13 6 -10 15 4 8 14 15 23 14 10 0
11 -2 3 -6z m2897 -43 c1 -13 0 -13 -9 0 -5 8 -9 24 -9 35 l0 20 9 -20 c5 -11
9 -27 9 -35z m-3114 -10 c3 -5 -3 -10 -14 -10 -12 0 -21 5 -21 10 0 6 6 10 14
10 8 0 18 -4 21 -10z m2603 -15 c-1 -14 -6 -25 -10 -25 -10 0 -10 13 -2 34 9
23 14 19 12 -9z m-2552 0 c-3 -21 -12 -27 -47 -31 -34 -4 -52 2 -44 16 3 5 19
5 35 0 25 -7 32 -5 40 11 13 23 19 25 16 4z m73 -37 c1 -5 -3 -8 -9 -8 -5 0
-10 12 -9 28 0 24 1 25 9 7 5 -11 9 -23 9 -27z m-729 28 c0 -3 -4 -8 -10 -11
-5 -3 -10 -1 -10 4 0 6 5 11 10 11 6 0 10 -2 10 -4z m3900 -6 c0 -5 -4 -10
-10 -10 -5 0 -10 5 -10 10 0 6 5 10 10 10 6 0 10 -4 10 -10z m-3210 -22 c0 -7
-5 -20 -10 -28 -9 -13 -11 -13 -19 0 -6 9 -6 19 1 27 13 17 28 17 28 1z m7430
8 c0 -2 -14 -13 -31 -24 -24 -15 -27 -20 -15 -25 10 -4 20 1 26 13 5 10 18 18
28 18 9 0 25 3 36 7 14 6 17 4 14 -11 -3 -15 -11 -18 -36 -16 -24 2 -32 -1
-32 -12 0 -9 -7 -16 -15 -16 -8 0 -15 -7 -15 -15 0 -8 5 -15 10 -15 21 0 9
-18 -16 -23 -32 -6 -45 20 -20 38 10 8 13 16 7 19 -6 4 -19 -2 -29 -12 -10
-10 -27 -22 -37 -25 -10 -4 -15 -10 -12 -14 4 -3 2 -12 -4 -20 -7 -8 -8 -13
-1 -13 5 0 16 10 24 22 14 20 15 21 13 3 -1 -11 -7 -31 -12 -45 -6 -15 -7 -26
-1 -28 17 -7 58 8 55 20 -1 7 7 13 18 15 14 3 16 1 7 -5 -7 -5 -12 -13 -10
-18 1 -5 -4 -19 -11 -32 -9 -17 -16 -20 -25 -13 -7 6 -17 6 -26 1 -13 -8 -12
-10 3 -10 9 0 17 -2 17 -4 0 -2 3 -11 6 -20 5 -12 -1 -16 -24 -16 -25 0 -29 3
-25 19 3 10 0 22 -6 25 -5 4 -8 13 -5 20 8 22 -11 27 -24 6 -9 -14 -8 -19 3
-24 27 -10 16 -23 -15 -18 -18 3 -30 0 -30 -7 0 -6 -11 -11 -25 -11 -14 0 -25
5 -25 11 0 5 4 7 10 4 6 -3 7 1 4 9 -4 12 0 16 16 16 28 0 49 26 50 60 0 23
-3 21 -43 -23 -24 -26 -47 -47 -50 -47 -13 0 -7 29 7 37 7 4 18 24 25 43 7 23
22 42 44 53 18 10 41 31 52 47 11 17 28 30 37 30 9 0 19 4 22 9 3 4 17 6 31 3
15 -2 25 0 25 7 0 6 7 11 15 11 8 0 15 -2 15 -4z m-4911 -22 c6 4 11 2 11 -3
0 -6 -9 -11 -19 -11 -11 0 -23 -4 -26 -10 -3 -5 -12 -10 -18 -10 -7 0 -4 7 6
14 9 7 17 19 17 27 0 12 2 12 9 0 5 -7 14 -10 20 -7z m667 -11 c-10 -10 -19 5
-10 18 6 11 8 11 12 0 2 -7 1 -15 -2 -18z m4904 3 c0 -2 -9 -2 -20 1 -11 3
-20 9 -20 15 0 5 9 4 20 -2 11 -6 20 -12 20 -14z m-4303 7 c-3 -5 16 -9 42
-10 27 -1 66 -8 89 -16 30 -11 44 -11 52 -3 9 8 11 6 8 -8 -1 -10 3 -21 10
-23 6 -3 12 1 12 9 0 10 3 9 10 -2 8 -12 10 -9 10 13 0 15 5 27 11 27 6 0 8
-7 5 -16 -4 -10 -1 -14 6 -11 17 5 38 -45 31 -75 -3 -14 -1 -18 4 -11 13 18
40 -8 46 -42 3 -26 4 -25 6 8 1 26 5 36 12 31 8 -5 10 -33 6 -93 -7 -88 -37
-207 -51 -194 -4 4 -4 0 0 -10 3 -10 1 -17 -6 -17 -6 0 -8 -4 -5 -10 5 -9 -33
-76 -65 -111 -8 -9 -26 -29 -39 -43 -13 -15 -21 -29 -18 -32 6 -6 85 69 110
106 l17 25 -14 -30 c-21 -46 -95 -124 -122 -131 -13 -3 -24 -10 -24 -15 0 -5
-12 -9 -26 -9 -16 0 -23 -4 -18 -12 4 -6 3 -8 -4 -4 -6 3 -13 2 -17 -4 -4 -6
-11 -8 -16 -4 -5 3 -17 0 -25 -7 -8 -6 -17 -9 -20 -6 -3 3 -26 -5 -50 -18 -61
-32 -141 -41 -238 -25 -44 7 -85 17 -91 22 -47 38 -58 49 -45 45 10 -3 16 2
17 14 1 10 -3 19 -8 19 -22 0 -41 31 -35 55 4 14 2 25 -3 25 -17 0 -24 79 -9
97 11 14 11 16 -1 9 -10 -7 -12 2 -7 48 3 31 9 64 14 74 5 9 7 22 5 29 -2 6 5
17 17 23 12 6 19 17 17 23 -2 6 5 21 15 31 10 11 16 26 14 32 -3 7 2 15 11 18
9 4 13 9 10 12 -6 6 27 47 75 93 53 51 89 74 149 95 45 16 134 22 126 9z
m-3844 -10 c-7 -2 -21 -2 -30 0 -10 3 -4 5 12 5 17 0 24 -2 18 -5z m11 -28
c-6 -16 -24 -21 -24 -7 0 11 11 22 21 22 5 0 6 -7 3 -15z m46 -15 c0 -6 -8
-14 -17 -17 -10 -4 -21 -11 -24 -16 -4 -5 -17 -7 -30 -5 -22 4 -21 6 16 25 47
25 55 26 55 13z m4124 -28 c2 -4 -4 -9 -15 -9 -10 -1 -19 2 -19 8 0 11 27 12
34 1z m-1261 -56 c9 -26 11 -49 6 -57 -6 -10 -9 -5 -9 17 0 16 -4 34 -9 40 -5
5 -12 20 -16 33 -13 43 12 13 28 -33z m-2873 15 c-5 -10 -21 -21 -36 -24 l-26
-5 28 27 c32 30 50 30 34 2z m-70 9 c0 -5 -2 -10 -4 -10 -3 0 -8 5 -11 10 -3
6 -1 10 4 10 6 0 11 -4 11 -10z m7530 -15 c0 -2 -9 -9 -20 -15 -12 -6 -20 -7
-20 -1 0 5 8 12 18 14 9 3 18 5 20 6 1 0 2 -1 2 -4z m676 -10 c10 -8 15 -14 9
-14 -5 0 -19 6 -29 14 -11 8 -15 15 -10 15 6 0 19 -7 30 -15z m-684 -67 c-5
-5 -18 -8 -28 -6 -17 3 -16 5 6 26 22 20 25 21 28 7 2 -10 -1 -22 -6 -27z
m-4537 12 c3 -5 1 -10 -4 -10 -6 0 -11 5 -11 10 0 6 2 10 4 10 3 0 8 -4 11
-10z m4543 -44 c-10 -7 -18 -19 -18 -26 0 -7 -3 -11 -6 -7 -11 11 7 47 24 47
16 -1 16 -2 0 -14z m-218 -26 c0 -5 -4 -10 -10 -10 -5 0 -10 5 -10 10 0 6 5
10 10 10 6 0 10 -4 10 -10z m76 -202 c9 -18 23 -45 31 -60 18 -35 51 -58 81
-58 28 0 62 21 126 77 55 49 86 56 148 32 28 -12 37 -30 45 -99 5 -48 35 -90
63 -90 9 0 43 16 76 36 66 40 83 37 98 -14 7 -26 4 -36 -15 -60 -58 -71 -181
-132 -272 -135 -34 -2 -54 5 -88 28 -24 17 -50 38 -57 48 -15 20 -61 22 -146
6 -32 -6 -69 -8 -83 -4 -47 11 -163 149 -163 193 0 11 7 25 15 32 8 7 15 18
15 25 0 18 70 75 92 75 9 0 24 -15 34 -32z m-246 -58 c0 -5 -5 -10 -11 -10 -5
0 -7 5 -4 10 3 6 8 10 11 10 2 0 4 -4 4 -10z m-30 -24 c0 -8 -7 -16 -15 -20
-12 -4 -13 -2 -2 14 14 24 17 25 17 6z m-7108 -31 c7 -7 -14 -55 -24 -55 -5 0
-8 14 -8 30 0 27 17 40 32 25z m54 -83 c0 -27 -4 -46 -12 -49 -7 -2 -18 -19
-25 -36 -19 -50 -24 -6 -5 49 8 24 11 42 6 39 -6 -3 -9 6 -8 20 2 20 7 25 23
23 16 -2 20 -11 21 -46z m4655 -83 c-9 -22 -10 -22 -10 -3 -1 11 2 24 6 27 12
12 14 0 4 -24z m-4641 11 c0 -5 -10 -10 -22 -10 -19 0 -20 2 -8 10 19 13 30
13 30 0z m4180 -103 c0 -16 -18 3 -23 25 -6 22 -5 22 8 4 8 -11 15 -24 15 -29z
m-4200 13 c0 -5 -4 -10 -10 -10 -5 0 -10 5 -10 10 0 6 5 10 10 10 6 0 10 -4
10 -10z m-150 -80 c46 -110 70 -220 76 -352 5 -110 5 -118 -13 -118 -10 0 -29
6 -43 13 -35 18 -84 4 -111 -33 l-22 -29 -29 24 c-16 14 -33 25 -36 26 -26 3
-57 10 -61 15 -11 10 -5 252 6 276 5 13 20 44 32 70 12 26 38 66 57 89 19 23
38 47 42 54 6 10 65 46 68 42 1 -1 16 -36 34 -77z m354 65 c-4 -8 -8 -15 -10
-15 -2 0 -4 7 -4 15 0 8 4 15 10 15 5 0 7 -7 4 -15z m3809 -45 c-7 -8 -23 24
-22 45 0 15 3 13 13 -10 7 -16 11 -32 9 -35z m-3993 20 c0 -5 -2 -10 -4 -10
-3 0 -8 5 -11 10 -3 6 -1 10 4 10 6 0 11 -4 11 -10z m102 -23 c-2 -25 9 -30
36 -14 6 5 12 4 12 -2 0 -11 -47 -27 -55 -19 -3 2 -8 19 -11 38 -6 26 -4 32 7
28 8 -3 13 -16 11 -31z m48 -57 c0 -5 -5 -10 -11 -10 -5 0 -7 5 -4 10 3 6 8
10 11 10 2 0 4 -4 4 -10z m-50 -36 c0 -8 -5 -12 -10 -9 -6 4 -8 11 -5 16 9 14
15 11 15 -7z m70 1 c-7 -9 -15 -13 -17 -11 -7 7 7 26 19 26 6 0 6 -6 -2 -15z
m3634 -10 c-4 -8 -10 -12 -15 -9 -11 6 -2 24 11 24 5 0 7 -7 4 -15z m-3647
-47 c-3 -8 -6 -5 -6 6 -1 11 2 17 5 13 3 -3 4 -12 1 -19z m7893 -133 c0 -9 -9
-15 -21 -15 -18 0 -19 2 -9 15 7 8 16 15 21 15 5 0 9 -7 9 -15z m108 -7 c-3
-7 -13 -15 -23 -16 -10 -3 -15 0 -11 7 4 6 3 11 -2 11 -6 0 -13 -11 -16 -25
-6 -22 -26 -36 -26 -17 1 37 14 52 47 52 23 0 33 -4 31 -12z m-8058 -2 c0 -3
-4 -8 -10 -11 -5 -3 -10 -1 -10 4 0 6 5 11 10 11 6 0 10 -2 10 -4z m8108 -8
c-5 -14 -57 -46 -75 -47 -7 -1 -13 3 -13 8 0 11 39 26 57 23 8 -2 10 3 7 13
-4 10 0 15 11 15 9 0 15 -5 13 -12z m-331 -22 c-2 -6 -1 -21 4 -34 7 -20 13
-22 47 -16 25 4 42 2 46 -5 4 -6 18 -11 32 -11 14 0 22 -4 19 -10 -4 -6 9 -10
32 -10 21 0 48 -7 59 -15 12 -8 24 -12 27 -8 4 3 9 -2 13 -11 3 -9 17 -16 29
-16 32 0 41 -18 19 -35 -23 -17 -3 -20 27 -5 25 14 26 -9 2 -30 -18 -15 -70
-19 -90 -7 -6 4 -23 3 -37 -3 -20 -7 -26 -6 -26 4 0 15 -45 30 -60 21 -4 -3
-10 0 -12 7 -2 6 -18 11 -36 10 -17 0 -34 3 -37 8 -3 5 -12 7 -20 3 -8 -3 -15
-1 -15 5 0 5 -11 8 -25 7 -16 -2 -26 2 -26 11 -4 35 -3 39 7 37 6 -1 11 5 11
13 0 15 -7 17 -31 8 -8 -3 -12 -12 -9 -20 3 -8 -1 -14 -11 -14 -9 0 -16 3 -16
7 0 13 44 53 58 53 10 0 12 10 8 40 -4 27 -2 39 5 34 6 -3 8 -11 6 -18z m140
-8 c-3 -8 -6 -5 -6 6 -1 11 2 17 5 13 3 -3 4 -12 1 -19z m-177 4 c0 -5 -7 -9
-15 -9 -8 0 -12 4 -9 9 3 4 9 8 15 8 5 0 9 -4 9 -8z m225 -2 c3 -5 1 -10 -4
-10 -6 0 -11 5 -11 10 0 6 2 10 4 10 3 0 8 -4 11 -10z m232 -26 c-3 -3 -28 -8
-54 -10 -33 -2 -43 -1 -33 6 16 10 97 14 87 4z m-7994 -35 c72 -11 74 -12 70
-37 -8 -45 -35 -126 -48 -142 -6 -8 -15 -23 -18 -32 -4 -10 -12 -18 -19 -18
-7 0 -18 -8 -24 -18 -6 -9 -38 -31 -70 -46 -51 -26 -70 -29 -141 -29 -47 1
-80 -3 -77 -8 10 -16 -13 -9 -29 9 -14 16 -15 21 -3 38 22 30 28 86 14 113
-12 23 -10 28 32 66 74 68 137 99 232 114 4 1 40 -4 81 -10z m-1002 -25 c41
-15 86 -35 101 -45 14 -11 29 -19 34 -19 4 0 28 -14 54 -30 l47 -30 -16 -45
c-12 -34 -13 -52 -5 -82 l10 -38 -56 3 c-30 2 -59 8 -64 13 -6 5 -19 9 -30 9
-12 1 -49 15 -83 33 -74 39 -126 101 -141 171 l-10 48 31 -6 c32 -6 32 -6 7 8
-14 8 -28 12 -32 10 -5 -3 -8 -1 -8 5 0 9 25 17 66 20 11 0 54 -11 95 -25z
m9029 12 c0 -3 -4 -8 -10 -11 -5 -3 -10 -1 -10 4 0 6 5 11 10 11 6 0 10 -2 10
-4z m-7850 -41 c0 -8 -9 -19 -20 -25 -17 -9 -20 -8 -20 9 0 11 8 22 18 24 9 3
18 5 20 6 1 0 2 -6 2 -14z m7357 -20 c-4 -13 -47 -20 -47 -7 0 13 7 18 30 18
11 0 19 -5 17 -11z m-7379 -88 c-7 -14 -13 -17 -16 -9 -6 19 6 44 18 37 7 -4
6 -14 -2 -28z m-601 -12 c44 -45 42 -81 -5 -108 -33 -20 -34 -20 -60 0 -37 27
-41 74 -10 113 13 16 27 29 32 29 5 1 24 -15 43 -34z m-184 -13 c20 -18 22
-41 5 -77 -16 -35 -54 -43 -80 -17 -19 19 -19 24 -7 71 12 47 14 50 38 44 14
-3 34 -13 44 -21z m924 2 c-3 -3 -12 -4 -19 -1 -8 3 -5 6 6 6 11 1 17 -2 13
-5z m7527 -9 c-7 -17 -20 -20 -28 -6 -4 5 0 12 6 14 23 9 28 7 22 -8z m-24
-25 c0 -5 -10 -10 -22 -10 -19 0 -20 2 -8 10 19 13 30 13 30 0z m-7580 -13 c0
-8 -9 -22 -19 -31 -24 -22 -36 1 -13 27 18 20 32 22 32 4z m-112 -77 c-15 -12
-26 -15 -33 -9 -12 12 4 24 35 26 20 2 20 1 -2 -17z m79 -12 c-20 -18 -37 -36
-37 -40 0 -14 23 -8 35 9 14 18 28 4 16 -16 -10 -16 -101 -27 -101 -12 0 6 7
11 15 11 8 0 15 7 15 15 0 22 42 60 70 63 23 2 23 0 -13 -30z m-600 -37 c17
-22 12 -41 -14 -59 -22 -14 -23 -13 -23 16 0 17 -4 34 -10 37 -5 3 -10 13 -10
21 0 19 39 9 57 -15z m498 19 c3 -6 -1 -13 -10 -16 -19 -8 -30 0 -20 15 8 14
22 14 30 1z m-617 -58 c3 -24 -2 -34 -23 -48 -23 -15 -28 -15 -36 -3 -15 24
-21 58 -15 84 6 24 8 24 39 12 25 -11 33 -20 35 -45z m-141 9 c0 -9 5 -37 12
-63 10 -36 20 -49 42 -59 17 -6 28 -15 27 -19 -10 -25 -165 -146 -226 -176
-72 -36 -73 -36 -94 -18 -48 44 9 208 107 312 57 59 57 59 95 50 26 -7 38 -15
37 -27z m997 -15 c-3 -8 -12 -17 -20 -20 -7 -3 -11 -12 -8 -21 3 -8 1 -15 -5
-15 -21 0 -12 45 12 56 12 7 23 12 24 13 1 0 0 -5 -3 -13z m-149 -6 c3 -5 1
-10 -4 -10 -6 0 -11 5 -11 10 0 6 2 10 4 10 3 0 8 -4 11 -10z m40 0 c3 -5 -1
-10 -10 -10 -9 0 -13 5 -10 10 3 6 8 10 10 10 2 0 7 -4 10 -10z m55 0 c0 -13
-40 -53 -47 -46 -3 3 2 12 11 21 9 9 16 21 16 26 0 5 5 9 10 9 6 0 10 -4 10
-10z m-521 -49 c52 -42 89 -99 106 -161 7 -25 16 -52 19 -60 7 -17 -42 -39
-126 -59 -80 -19 -125 11 -218 147 -42 61 -43 63 -25 82 11 12 25 18 36 15 37
-12 96 14 118 51 23 39 23 39 90 -15z m641 -20 c0 -6 -4 -13 -10 -16 -5 -3
-10 1 -10 9 0 9 5 16 10 16 6 0 10 -4 10 -9z"/>
<path d="M4135 7716 c-19 -13 -18 -14 8 -13 15 1 27 8 27 15 0 16 -12 15 -35
-2z"/>
<path d="M4330 7704 c0 -14 4 -23 10 -19 6 3 10 15 10 26 0 10 -4 19 -10 19
-5 0 -10 -12 -10 -26z"/>
<path d="M4190 7710 c0 -5 5 -10 11 -10 5 0 7 5 4 10 -3 6 -8 10 -11 10 -2 0
-4 -4 -4 -10z"/>
<path d="M3980 7700 c-13 -8 -13 -10 2 -10 9 0 20 5 23 10 8 13 -5 13 -25 0z"/>
<path d="M6215 6790 c-3 -5 -1 -10 4 -10 6 0 11 5 11 10 0 6 -2 10 -4 10 -3 0
-8 -4 -11 -10z"/>
<path d="M6245 6769 c-12 -19 3 -22 27 -5 l22 16 -21 0 c-12 0 -25 -5 -28 -11z"/>
<path d="M6215 6750 c-7 -12 2 -30 16 -30 12 0 12 27 0 35 -5 3 -12 1 -16 -5z"/>
<path d="M6240 6699 c0 -5 5 -7 10 -4 6 3 10 8 10 11 0 2 -4 4 -10 4 -5 0 -10
-5 -10 -11z"/>
<path d="M5515 6500 c4 -6 11 -8 16 -5 14 9 11 15 -7 15 -8 0 -12 -5 -9 -10z"/>
<path d="M5328 6483 c6 -2 18 -2 25 0 6 3 1 5 -13 5 -14 0 -19 -2 -12 -5z"/>
<path d="M6395 6130 c4 -6 11 -8 16 -5 14 9 11 15 -7 15 -8 0 -12 -5 -9 -10z"/>
<path d="M4594 6259 c-9 -15 14 -18 32 -4 18 13 18 14 -4 12 -13 -1 -26 -5
-28 -8z"/>
<path d="M8400 5880 c19 -13 30 -13 30 0 0 6 -10 10 -22 10 -19 0 -20 -2 -8
-10z"/>
<path d="M8400 5851 c0 -5 -3 -18 -6 -28 -5 -16 -4 -16 10 1 18 23 20 36 6 36
-5 0 -10 -4 -10 -9z"/>
<path d="M8411 5803 c-12 -16 -26 -34 -32 -42 -9 -10 -9 -15 1 -21 7 -4 11
-14 8 -21 -3 -8 1 -27 9 -44 14 -30 14 -29 9 19 -2 30 -1 43 5 35 7 -12 9 -12
9 0 0 7 6 11 15 7 11 -4 15 2 15 22 -1 23 -2 25 -11 9 -6 -9 -14 -15 -20 -12
-15 10 -10 45 6 45 8 0 15 7 15 15 0 21 -6 19 -29 -12z"/>
<path d="M8332 5775 c-11 -14 -25 -25 -32 -25 -7 0 -10 -7 -6 -15 3 -9 -1 -18
-9 -22 -14 -5 -14 -7 0 -17 15 -11 14 -14 -4 -37 -11 -15 -18 -29 -14 -33 8
-7 33 13 33 27 0 16 49 115 60 122 6 3 10 10 10 16 0 17 -18 9 -38 -16z"/>
<path d="M8434 5708 c-4 -6 -2 -14 4 -16 7 -2 10 -8 6 -13 -3 -5 0 -9 5 -9 13
0 15 37 2 45 -5 3 -13 0 -17 -7z"/>
<path d="M8320 5689 c0 -5 5 -7 10 -4 6 3 10 8 10 11 0 2 -4 4 -10 4 -5 0 -10
-5 -10 -11z"/>
<path d="M8345 5641 c-25 -5 -27 -8 -12 -14 28 -11 44 -8 51 8 3 8 2 14 -2 14
-4 -1 -20 -4 -37 -8z"/>
<path d="M8421 5614 c0 -11 3 -14 6 -6 3 7 2 16 -1 19 -3 4 -6 -2 -5 -13z"/>
<path d="M8327 5586 c-6 -16 2 -28 14 -20 12 7 11 34 0 34 -5 0 -11 -6 -14
-14z"/>
<path d="M8380 5580 c0 -5 5 -10 10 -10 6 0 10 5 10 10 0 6 -4 10 -10 10 -5 0
-10 -4 -10 -10z"/>
<path d="M8211 5570 c-16 -9 -6 -30 15 -30 15 0 20 25 6 34 -4 2 -14 1 -21 -4z"/>
<path d="M8275 5540 c3 -5 8 -10 11 -10 2 0 4 5 4 10 0 6 -5 10 -11 10 -5 0
-7 -4 -4 -10z"/>
<path d="M8320 5526 c0 -8 -7 -22 -16 -30 -8 -9 -11 -16 -5 -16 5 0 19 14 31
30 18 25 19 30 6 30 -9 0 -16 -6 -16 -14z"/>
<path d="M8180 5520 c0 -5 7 -10 15 -10 8 0 15 5 15 10 0 6 -7 10 -15 10 -8 0
-15 -4 -15 -10z"/>
<path d="M8230 5510 c0 -5 5 -10 11 -10 5 0 7 5 4 10 -3 6 -8 10 -11 10 -2 0
-4 -4 -4 -10z"/>
<path d="M8267 5473 c-4 -3 -7 -11 -7 -17 0 -6 5 -5 12 2 6 6 9 14 7 17 -3 3
-9 2 -12 -2z"/>
<path d="M6630 6221 c0 -5 16 -11 36 -13 32 -4 34 -3 18 9 -20 15 -54 17 -54
4z"/>
<path d="M6587 6213 c-2 -5 -3 -17 -3 -27 1 -27 26 -33 26 -7 0 12 -6 21 -12
21 -9 0 -8 4 2 10 9 6 10 10 3 10 -6 0 -14 -3 -16 -7z"/>
<path d="M6570 6151 c0 -5 5 -13 10 -16 6 -3 10 -2 10 4 0 5 -4 13 -10 16 -5
3 -10 2 -10 -4z"/>
<path d="M3450 5500 c0 -5 5 -10 11 -10 5 0 7 5 4 10 -3 6 -8 10 -11 10 -2 0
-4 -4 -4 -10z"/>
<path d="M4030 5410 c0 -5 5 -10 11 -10 5 0 7 5 4 10 -3 6 -8 10 -11 10 -2 0
-4 -4 -4 -10z"/>
<path d="M4390 4410 c0 -5 5 -10 10 -10 6 0 10 5 10 10 0 6 -4 10 -10 10 -5 0
-10 -4 -10 -10z"/>
<path d="M6420 4760 c0 -5 5 -10 10 -10 6 0 10 5 10 10 0 6 -4 10 -10 10 -5 0
-10 -4 -10 -10z"/>
<path d="M2755 4150 c3 -5 16 -10 28 -10 18 0 19 2 7 10 -20 13 -43 13 -35 0z"/>
<path d="M2818 4143 c7 -3 16 -2 19 1 4 3 -2 6 -13 5 -11 0 -14 -3 -6 -6z"/>
<path d="M4145 4130 c-3 -6 1 -7 9 -4 18 7 21 14 7 14 -6 0 -13 -4 -16 -10z"/>
<path d="M3035 4110 c3 -5 12 -7 20 -3 21 7 19 13 -6 13 -11 0 -18 -4 -14 -10z"/>
<path d="M9527 3823 c-4 -3 -7 -11 -7 -17 0 -6 5 -5 12 2 6 6 9 14 7 17 -3 3
-9 2 -12 -2z"/>
<path d="M5000 3380 c-10 -6 -2 -7 25 -3 49 7 58 13 19 13 -16 0 -36 -5 -44
-10z"/>
<path d="M5346 3352 c-4 -7 -5 -16 -2 -19 3 -3 1 -14 -5 -24 -7 -13 -6 -19 1
-19 14 0 22 23 18 52 -2 17 -5 19 -12 10z"/>
<path d="M5321 3334 c0 -11 3 -14 6 -6 3 7 2 16 -1 19 -3 4 -6 -2 -5 -13z"/>
<path d="M4716 2923 c1 -16 3 -30 4 -33 1 -3 2 -9 1 -13 -1 -5 2 -6 7 -3 9 6
3 76 -7 76 -4 0 -6 -12 -5 -27z"/>
<path d="M5255 2840 c-3 -5 -16 -11 -28 -11 -16 -1 -14 -3 8 -8 l30 -6 -35
-22 c-20 -12 -46 -34 -60 -48 -21 -23 -22 -25 -5 -19 11 4 33 18 48 31 16 13
33 21 38 18 5 -4 6 0 4 8 -3 7 3 21 14 31 11 10 18 23 15 27 -7 12 -21 11 -29
-1z"/>
<path d="M5127 2756 c-4 -10 -1 -13 8 -9 8 3 12 9 9 14 -7 12 -11 11 -17 -5z"/>
<path d="M8805 4850 c-3 -5 -1 -10 4 -10 6 0 11 5 11 10 0 6 -2 10 -4 10 -3 0
-8 -4 -11 -10z"/>
<path d="M8793 4765 c0 -9 4 -14 9 -13 5 2 10 8 10 13 0 5 -5 11 -10 13 -5 1
-9 -4 -9 -13z"/>
<path d="M8803 4740 c-16 -7 -21 -14 -16 -27 4 -10 8 -12 11 -5 2 7 7 10 12 7
4 -3 10 4 13 15 3 11 4 20 4 19 -1 0 -12 -4 -24 -9z"/>
<path d="M8880 4685 c-7 -14 -10 -28 -7 -32 4 -3 7 0 7 7 0 7 7 22 17 32 9 10
12 18 6 18 -5 0 -16 -11 -23 -25z"/>
<path d="M8787 4661 c-19 -32 -22 -56 -7 -46 6 3 10 15 10 27 0 11 8 22 20 25
22 6 27 23 7 23 -7 0 -20 -13 -30 -29z"/>
<path d="M8895 4660 c-3 -5 -1 -10 4 -10 6 0 11 5 11 10 0 6 -2 10 -4 10 -3 0
-8 -4 -11 -10z"/>
<path d="M8920 4550 c0 -5 5 -10 10 -10 6 0 10 5 10 10 0 6 -4 10 -10 10 -5 0
-10 -4 -10 -10z"/>
<path d="M445 3940 c-3 -5 -1 -10 4 -10 6 0 11 5 11 10 0 6 -2 10 -4 10 -3 0
-8 -4 -11 -10z"/>
<path d="M474 3876 c-10 -8 -16 -17 -13 -20 3 -3 14 3 24 14 21 23 17 26 -11
6z"/>
<path d="M3210 3879 c0 -5 5 -7 10 -4 6 3 10 8 10 11 0 2 -4 4 -10 4 -5 0 -10
-5 -10 -11z"/>
<path d="M1628 3552 c-15 -18 -19 -98 -5 -119 9 -15 37 -6 37 12 0 7 6 16 13
18 10 4 10 6 0 6 -7 1 -13 10 -13 20 0 11 6 22 13 24 7 3 5 6 -5 6 -19 1 -25
17 -9 23 5 2 3 8 -4 15 -10 9 -16 8 -27 -5z"/>
<path d="M2241 3554 c0 -11 3 -14 6 -6 3 7 2 16 -1 19 -3 4 -6 -2 -5 -13z"/>
<path d="M2275 3550 c-3 -5 -2 -10 4 -10 5 0 13 5 16 10 3 6 2 10 -4 10 -5 0
-13 -4 -16 -10z"/>
<path d="M1770 3540 c0 -4 6 -11 13 -13 6 -3 -4 -6 -25 -6 -31 -1 -37 -5 -47
-32 -16 -47 -14 -79 6 -79 9 0 30 -4 47 -10 39 -12 286 -60 340 -66 23 -3 52
-9 66 -14 14 -5 43 -11 65 -14 40 -5 91 -14 132 -22 18 -3 21 -8 14 -22 -25
-45 -40 -85 -46 -121 l-7 -40 -75 64 c-61 51 -89 67 -148 84 -123 37 -285 28
-285 -15 0 -9 -7 -30 -14 -47 -68 -148 -9 -352 124 -435 19 -12 41 -26 49 -31
11 -7 4 -18 -31 -53 -67 -65 -118 -179 -118 -263 0 -35 18 -68 27 -47 2 6 11
12 19 12 8 0 14 5 14 10 0 6 7 10 16 10 11 0 14 -6 9 -21 -4 -12 -3 -19 2 -16
4 3 8 -13 8 -36 0 -23 6 -42 13 -45 6 -2 12 -10 12 -17 0 -7 14 -15 30 -17 17
-3 30 -1 30 3 0 3 9 9 20 12 11 3 20 10 20 16 0 8 -6 9 -19 1 -33 -17 -48 -11
-22 10 l23 20 -34 0 c-30 0 -36 4 -47 36 -16 45 -8 114 22 173 38 78 148 171
200 171 13 0 39 5 56 11 29 10 34 9 47 -9 25 -36 71 -62 118 -67 25 -3 48 0
51 5 8 12 45 13 45 1 0 -14 65 -41 97 -41 37 0 90 26 106 51 6 10 15 19 20 19
4 0 6 -4 2 -10 -3 -5 7 -17 22 -27 74 -47 151 -224 138 -318 -2 -16 -4 -34 -4
-40 -1 -5 -5 -4 -10 4 -5 8 -7 21 -4 30 5 13 3 14 -8 4 -7 -7 -20 -13 -28 -13
-9 -1 -29 -8 -46 -16 -16 -8 -22 -12 -13 -10 23 7 34 -12 13 -20 -13 -5 -14
-9 -4 -15 10 -6 10 -11 0 -23 -8 -9 -10 -16 -5 -16 5 0 2 -4 -6 -10 -23 -14
-5 -23 33 -16 39 7 92 46 64 46 -23 0 -21 5 8 34 14 14 25 34 25 44 0 11 7 26
17 33 15 13 16 11 9 -14 -4 -16 -4 -37 -1 -48 6 -19 8 -18 35 8 35 35 52 92
39 136 -5 17 -9 44 -9 58 0 14 -13 51 -30 82 -16 31 -30 61 -30 67 0 5 15 10
34 10 19 0 37 4 40 8 3 4 -2 35 -11 69 l-15 61 -81 -29 c-45 -16 -95 -29 -110
-29 -16 0 -36 -4 -45 -9 -15 -8 -17 -3 -18 33 -1 23 -9 56 -18 75 -16 30 -16
34 -1 58 9 13 14 31 11 38 -6 16 75 68 139 90 25 8 72 15 103 15 32 0 63 5 70
12 8 8 12 8 12 1 0 -6 25 -14 55 -18 30 -3 55 -9 55 -13 -1 -24 -41 -117 -63
-149 -26 -37 -26 -40 -15 -106 6 -37 15 -67 20 -67 11 0 78 64 78 74 0 4 -4 4
-10 1 -15 -9 -12 39 3 53 6 7 12 16 13 20 2 16 18 48 28 54 19 13 29 9 16 -7
-10 -12 -10 -15 3 -15 20 0 25 16 21 79 -8 118 -41 168 -127 192 -60 18 -198
17 -230 0 -15 -8 -29 -12 -31 -10 -8 8 19 99 29 99 5 0 37 -5 70 -11 33 -6 71
-12 85 -15 28 -4 106 -18 163 -29 36 -7 37 -7 37 21 0 24 -21 225 -25 231 0 1
-48 5 -105 8 -152 8 -209 15 -216 26 -3 5 -14 7 -24 4 -13 -4 -22 2 -33 23
-12 26 -12 30 2 41 14 10 13 11 -4 5 -11 -4 -33 -6 -50 -5 -111 7 -145 7 -136
1 6 -3 -13 -18 -42 -32 -44 -21 -54 -23 -65 -12 -14 16 -33 19 -30 5 2 -5 -1
-9 -7 -10 -5 0 -10 6 -10 14 0 14 -4 16 -22 14 -28 -4 -79 5 -85 14 -4 7 -8 8
-8 3 0 -5 -7 -2 -17 5 -13 11 -17 11 -20 2 -5 -15 -33 -18 -33 -4 0 5 6 12 13
15 13 6 -29 -3 -50 -11 -8 -3 -10 3 -6 19 6 21 5 22 -11 8 -21 -17 -143 -21
-150 -5 -3 6 -5 2 -5 -7 -1 -13 -9 -18 -27 -18 -21 0 -24 3 -15 14 18 21 -28
30 -51 9 -10 -9 -18 -12 -18 -8 0 5 -5 4 -12 -3 -7 -7 -30 -12 -52 -12 -38 1
-40 2 -22 15 27 21 13 29 -21 13 -37 -19 -76 -12 -68 11 3 12 -1 17 -15 18
-11 1 -20 -2 -20 -7z m258 -52 c-3 -7 -13 -15 -23 -16 -15 -4 -16 -2 -4 12 17
19 32 21 27 4z m732 -157 c0 -86 -24 -215 -50 -269 -11 -22 -20 -53 -20 -67 0
-31 -5 -31 -42 0 -26 22 -35 24 -86 19 -31 -4 -63 -10 -71 -14 -9 -5 -27 6
-53 33 l-38 41 16 49 c15 44 88 145 138 190 40 36 144 82 194 86 8 1 12 -19
12 -68z m-805 -162 c36 -5 73 -13 83 -18 9 -5 46 -21 82 -36 36 -14 86 -40
111 -57 l47 -31 -14 -33 c-24 -57 -12 -119 30 -153 10 -9 12 -16 5 -24 -5 -7
-16 -20 -23 -31 -12 -17 -17 -18 -77 -6 -35 6 -71 13 -79 14 -8 1 -24 7 -35
13 -11 6 -31 13 -45 16 -14 3 -48 29 -77 57 -40 39 -56 65 -72 113 -25 79 -33
205 -11 192 6 -4 40 -11 75 -16z m442 -174 c18 -13 21 -22 16 -48 -10 -56 -51
-69 -95 -29 -23 20 -23 33 3 66 23 30 45 33 76 11z m201 -79 c20 -40 -1 -61
-49 -49 -40 11 -49 36 -23 64 24 27 56 20 72 -15z m-161 -108 c6 -7 13 -24 16
-37 12 -48 -71 -94 -102 -57 -21 25 -9 79 19 93 32 16 55 16 67 1z m191 -20
c7 -7 12 -33 12 -59 0 -38 -5 -51 -22 -63 -12 -9 -27 -16 -33 -16 -22 0 -55
41 -55 69 0 57 64 103 98 69z m-741 -365 c-3 -10 -5 -4 -5 12 0 17 2 24 5 18
2 -7 2 -21 0 -30z m-17 -34 c0 -5 -4 -9 -10 -9 -5 0 -10 7 -10 16 0 8 5 12 10
9 6 -3 10 -10 10 -16z"/>
<path d="M1695 3520 c3 -5 8 -10 11 -10 2 0 4 5 4 10 0 6 -5 10 -11 10 -5 0
-7 -4 -4 -10z"/>
<path d="M4831 3484 c0 -11 3 -14 6 -6 3 7 2 16 -1 19 -3 4 -6 -2 -5 -13z"/>
<path d="M1350 3376 c0 -8 5 -18 10 -21 6 -3 10 3 10 14 0 12 -4 21 -10 21 -5
0 -10 -6 -10 -14z"/>
<path d="M1390 3365 c-7 -8 -11 -17 -8 -20 8 -8 49 8 45 18 -6 18 -23 19 -37
2z"/>
<path d="M3274 3369 c-3 -5 1 -12 9 -15 15 -5 30 -81 31 -156 1 -21 5 -38 10
-38 4 0 6 -6 3 -12 -2 -7 -1 -22 4 -33 5 -14 8 -4 8 33 l1 53 33 -3 c29 -3 32
-6 34 -38 1 -19 2 -42 2 -51 1 -12 19 -19 74 -28 39 -7 82 -14 94 -17 l23 -6
-25 46 c-13 25 -22 46 -19 46 2 0 -3 15 -12 33 -10 17 -21 46 -25 62 -19 73
-35 106 -54 111 -11 4 -23 11 -27 17 -4 7 -11 7 -21 -1 -8 -7 -21 -10 -28 -8
-29 10 -109 14 -115 5z m109 -61 c3 -21 2 -38 -4 -38 -5 0 -9 19 -9 42 0 49 5
47 13 -4z m14 -80 c-3 -8 -6 -5 -6 6 -1 11 2 17 5 13 3 -3 4 -12 1 -19z m-27
8 c0 -3 -4 -8 -10 -11 -5 -3 -10 -1 -10 4 0 6 5 11 10 11 6 0 10 -2 10 -4z"/>
<path d="M3778 3353 c6 -2 18 -2 25 0 6 3 1 5 -13 5 -14 0 -19 -2 -12 -5z"/>
<path d="M4493 3298 c-13 -6 -23 -15 -23 -20 0 -14 16 -9 35 12 20 22 19 23
-12 8z"/>
<path d="M1414 3273 c-3 -10 -10 -26 -15 -35 -6 -11 -6 -18 0 -18 5 0 13 9 16
20 3 11 11 20 16 20 5 0 9 7 9 15 0 21 -19 19 -26 -2z"/>
<path d="M4416 3267 c-14 -10 -15 -19 -8 -52 l9 -40 8 40 c4 22 12 43 18 46 6
4 6 9 0 12 -6 4 -18 1 -27 -6z"/>
<path d="M1422 3200 c-10 -17 -10 -20 3 -20 8 0 15 2 15 4 0 2 3 11 6 20 9 23
-9 20 -24 -4z"/>
<path d="M1366 3181 c-4 -5 3 -7 14 -4 23 6 26 13 6 13 -8 0 -17 -4 -20 -9z"/>
<path d="M3355 3180 c-3 -5 1 -10 9 -10 9 0 16 5 16 10 0 6 -4 10 -9 10 -6 0
-13 -4 -16 -10z"/>
<path d="M1365 3150 c-4 -6 3 -10 14 -10 25 0 27 6 6 13 -8 4 -17 2 -20 -3z"/>
<path d="M3367 3153 c-4 -3 -7 -11 -7 -17 0 -6 5 -5 12 2 6 6 9 14 7 17 -3 3
-9 2 -12 -2z"/>
<path d="M1415 3140 c3 -5 8 -10 11 -10 2 0 4 5 4 10 0 6 -5 10 -11 10 -5 0
-7 -4 -4 -10z"/>
<path d="M4220 3130 c0 -11 4 -20 9 -20 17 0 19 15 5 28 -12 11 -14 9 -14 -8z"/>
<path d="M1481 3064 c0 -11 3 -14 6 -6 3 7 2 16 -1 19 -3 4 -6 -2 -5 -13z"/>
<path d="M1390 3054 c0 -8 5 -12 10 -9 6 3 10 10 10 16 0 5 -4 9 -10 9 -5 0
-10 -7 -10 -16z"/>
<path d="M1440 3045 c0 -8 2 -15 4 -15 2 0 6 7 10 15 3 8 1 15 -4 15 -6 0 -10
-7 -10 -15z"/>
<path d="M1481 3024 c0 -11 3 -14 6 -6 3 7 2 16 -1 19 -3 4 -6 -2 -5 -13z"/>
<path d="M1520 3030 c-12 -8 -11 -10 8 -10 12 0 22 5 22 10 0 13 -11 13 -30 0z"/>
<path d="M1440 2970 c0 -11 -7 -20 -15 -20 -17 0 -19 -9 -5 -30 9 -14 11 -13
14 10 0 5 9 18 18 29 16 18 14 31 -4 31 -4 0 -8 -9 -8 -20z"/>
<path d="M1530 2890 c0 -5 4 -10 9 -10 6 0 13 5 16 10 3 6 -1 10 -9 10 -9 0
-16 -4 -16 -10z"/>
<path d="M1423 2855 c-9 -10 -9 -16 -2 -20 14 -9 22 0 17 18 -2 13 -5 13 -15
2z"/>
<path d="M8097 2844 c-3 -4 -37 -17 -74 -30 -66 -24 -70 -24 -138 -9 -102 22
-128 24 -177 14 -74 -16 -107 -39 -135 -97 -20 -41 -29 -51 -42 -45 -24 11
-99 7 -129 -7 -15 -7 -43 -20 -62 -29 -19 -9 -55 -35 -80 -57 -35 -32 -63 -47
-125 -65 -75 -22 -110 -40 -99 -51 2 -3 -11 -29 -31 -58 -19 -29 -29 -50 -21
-47 8 3 32 9 53 13 21 3 47 12 58 19 11 7 32 13 47 13 23 0 28 -6 33 -39 13
-76 68 -110 176 -108 58 1 92 11 154 47 45 27 121 117 137 163 8 22 15 29 27
24 30 -12 155 -15 215 -5 32 5 77 19 101 30 71 34 119 132 83 168 -9 9 -9 12
0 13 7 1 17 3 22 4 6 1 15 3 20 4 6 0 10 27 10 59 0 32 5 63 12 70 9 9 7 12
-8 12 -12 0 -23 -3 -27 -6z m-491 -102 c-17 -16 -18 -16 -5 5 7 12 15 20 18
17 3 -2 -3 -12 -13 -22z m300 -14 c67 -28 96 -88 60 -123 -21 -22 -92 -34
-181 -31 -93 2 -121 14 -133 59 -12 45 1 65 61 93 42 19 63 23 108 19 32 -2
70 -10 85 -17z m-407 -108 c51 0 79 -95 43 -148 -10 -15 -24 -39 -32 -55 -7
-15 -36 -41 -64 -58 -43 -27 -57 -31 -102 -27 -77 7 -114 56 -100 133 9 48 81
134 136 161 40 20 47 21 72 8 15 -8 36 -14 47 -14z m-371 -174 c-7 -8 -17 -12
-22 -9 -4 3 -2 9 5 14 22 13 31 11 17 -5z"/>
<path d="M1530 2810 c-8 -5 -12 -11 -9 -14 3 -3 14 1 25 9 21 16 8 20 -16 5z"/>
<path d="M8315 2780 c-16 -7 -17 -9 -3 -9 9 -1 20 4 23 9 7 11 7 11 -20 0z"/>
<path d="M1650 2769 c0 -5 5 -7 10 -4 6 3 10 8 10 11 0 2 -4 4 -10 4 -5 0 -10
-5 -10 -11z"/>
<path d="M1476 2745 c-3 -8 -1 -15 3 -15 5 0 11 7 15 15 3 8 1 15 -3 15 -5 0
-11 -7 -15 -15z"/>
<path d="M3015 2740 c-3 -5 1 -10 10 -10 9 0 13 5 10 10 -3 6 -8 10 -10 10 -2
0 -7 -4 -10 -10z"/>
<path d="M1420 2730 c0 -5 -7 -10 -15 -10 -8 0 -15 -4 -15 -9 0 -4 11 -6 25
-3 24 4 36 32 15 32 -5 0 -10 -4 -10 -10z"/>
<path d="M1535 2660 c-3 -5 -1 -10 4 -10 6 0 11 5 11 10 0 6 -2 10 -4 10 -3 0
-8 -4 -11 -10z"/>
<path d="M1610 2630 c0 -5 7 -10 16 -10 8 0 12 5 9 10 -3 6 -10 10 -16 10 -5
0 -9 -4 -9 -10z"/>
<path d="M1645 2560 c-3 -5 -1 -10 4 -10 6 0 11 5 11 10 0 6 -2 10 -4 10 -3 0
-8 -4 -11 -10z"/>
<path d="M2396 2518 c-33 -74 -109 -126 -272 -189 l-61 -24 1 -43 1 -43 55 7
c95 11 199 64 274 139 12 13 16 9 29 -30 18 -52 63 -115 83 -115 8 0 14 -4 14
-9 0 -14 76 -50 119 -57 36 -6 39 -4 51 27 7 19 12 37 11 42 0 4 3 7 9 7 5 0
10 9 10 20 0 16 -7 20 -32 20 -70 0 -184 89 -227 177 -12 26 -27 55 -31 64 -5
9 -6 26 -3 38 10 39 -8 21 -31 -31z"/>
<path d="M5873 2504 c2 -42 13 -45 19 -4 3 18 0 31 -8 34 -9 3 -12 -6 -11 -30z"/>
<path d="M5413 2491 c-18 -16 -34 -27 -37 -24 -9 9 -75 -37 -79 -55 -3 -9 -5
-32 -6 -51 -1 -28 1 -32 16 -26 10 4 28 10 40 12 27 6 36 16 66 74 21 40 42
99 34 99 -1 0 -17 -13 -34 -29z"/>
<path d="M5475 2500 c-15 -17 -16 -20 -3 -20 9 0 18 9 21 20 3 11 4 20 3 20
-2 0 -11 -9 -21 -20z"/>
<path d="M5897 2461 c-10 -17 -13 -32 -8 -35 11 -7 16 0 25 37 8 35 5 34 -17
-2z"/>
<path d="M5937 2445 c-26 -32 -26 -35 -8 -35 23 0 34 15 36 47 0 13 1 23 0 23
0 0 -13 -16 -28 -35z"/>
<path d="M6324 2425 c-4 -9 -2 -21 3 -26 7 -7 12 -3 16 10 6 25 -11 39 -19 16z"/>
<path d="M6864 2426 c-3 -8 -4 -23 -2 -33 3 -14 8 -11 21 15 15 28 16 32 2 32
-9 0 -18 -6 -21 -14z"/>
<path d="M7909 2393 c-62 -28 -128 -95 -131 -130 -3 -54 3 -87 23 -119 45 -73
159 -110 292 -95 210 24 308 152 203 266 -30 32 -111 85 -131 85 -7 0 -17 4
-20 10 -3 6 -45 9 -98 7 -69 -1 -103 -7 -138 -24z m307 -76 c84 -58 83 -139
-3 -165 -55 -16 -237 -5 -283 18 -96 49 -63 122 75 166 22 7 68 13 101 13 54
1 68 -3 110 -32z"/>
<path d="M6342 2379 c-10 -15 -10 -25 -3 -32 12 -12 25 12 19 38 -2 13 -6 12
-16 -6z"/>
<path d="M9020 2389 c0 -5 5 -7 10 -4 6 3 10 8 10 11 0 2 -4 4 -10 4 -5 0 -10
-5 -10 -11z"/>
<path d="M5240 2365 c-7 -9 -8 -15 -2 -15 5 0 12 7 16 15 3 8 4 15 2 15 -2 0
-9 -7 -16 -15z"/>
<path d="M8815 2361 c-6 -11 9 -23 19 -14 9 9 7 23 -3 23 -6 0 -12 -4 -16 -9z"/>
<path d="M6790 2346 c0 -21 15 -28 45 -20 14 3 25 13 25 23 0 10 -3 12 -8 5
-13 -19 -42 -25 -42 -9 0 8 -4 15 -10 15 -5 0 -10 -6 -10 -14z"/>
<path d="M6875 2350 c-3 -5 -1 -10 4 -10 6 0 11 5 11 10 0 6 -2 10 -4 10 -3 0
-8 -4 -11 -10z"/>
<path d="M1855 2330 c-3 -5 -1 -10 4 -10 6 0 11 5 11 10 0 6 -2 10 -4 10 -3 0
-8 -4 -11 -10z"/>
<path d="M5970 2198 c-75 -75 -123 -208 -124 -338 -1 -69 3 -94 22 -132 13
-26 26 -49 30 -51 4 -2 2 -2 -5 -1 -7 2 -15 -1 -18 -6 -3 -5 -25 -18 -48 -28
-56 -26 -138 -106 -167 -163 -15 -29 -29 -45 -37 -42 -9 3 -13 -4 -13 -21 0
-17 5 -26 16 -26 8 0 12 -5 9 -11 -11 -16 83 -100 150 -135 72 -37 168 -59
231 -51 l46 5 -3 -67 c-3 -90 8 -139 42 -182 16 -20 29 -41 29 -45 0 -16 70
-54 120 -66 43 -10 59 -9 111 8 62 20 139 74 139 100 0 8 4 14 8 14 19 0 35
79 34 162 -1 64 -7 98 -20 127 l-19 40 24 -10 c44 -16 185 -21 287 -10 77 9
113 19 167 45 38 19 69 29 69 24 0 -6 6 -5 15 2 20 17 13 68 -18 116 -38 61
-106 121 -185 165 l-73 41 58 37 c80 52 115 89 151 163 27 53 32 75 32 135 0
64 -2 72 -17 67 -16 -5 -16 -4 -3 8 9 7 14 21 12 30 -3 18 -52 28 -122 26 -19
-1 -72 3 -117 7 -82 8 -197 -7 -209 -26 -3 -5 -12 -9 -20 -9 -20 0 -120 -64
-163 -104 -18 -17 -41 -48 -51 -70 l-18 -38 -11 50 c-15 71 -75 190 -118 234
-37 37 -94 65 -112 54 -5 -4 -12 -2 -16 4 -14 22 -54 9 -95 -32z m226 -223
c38 -75 74 -176 74 -207 0 -12 -23 -5 -36 11 -26 33 -112 -11 -128 -66 -6 -18
-12 -20 -49 -16 -95 12 -130 98 -103 252 13 72 49 168 80 209 17 24 110 -81
162 -183z m721 47 c31 -2 32 -3 30 -44 -3 -55 -25 -94 -80 -146 -70 -64 -183
-113 -281 -121 -58 -6 -92 -4 -120 6 -21 7 -51 13 -67 13 -16 0 -29 5 -29 11
0 25 58 126 98 170 86 96 196 123 449 111z m-680 -296 c2 -1 4 -24 5 -50 3
-39 -1 -51 -17 -62 -18 -12 -25 -11 -55 5 -30 16 -35 23 -32 52 3 43 36 73 71
64 14 -4 27 -8 28 -9z m188 -33 c45 -7 60 -71 23 -97 -30 -21 -47 -20 -75 6
-29 27 -29 51 0 79 12 12 16 18 8 14 -10 -5 -12 -4 -7 4 4 6 13 8 19 4 7 -4
21 -9 32 -10z m240 -98 c127 -55 194 -96 274 -165 23 -20 29 -31 20 -34 -208
-63 -424 -62 -553 4 -26 13 -31 20 -25 36 4 10 8 31 8 47 1 21 6 27 24 27 35
0 86 36 104 75 9 19 23 36 32 38 19 4 73 -9 116 -28z m-543 -32 c16 -16 17
-24 8 -48 -6 -16 -8 -40 -5 -54 6 -23 -3 -56 -28 -109 -27 -57 -151 -78 -244
-42 -76 29 -93 37 -123 60 l-24 18 44 44 c58 58 161 127 200 134 17 4 33 10
35 15 10 16 117 2 137 -18z m180 -28 c5 -21 3 -36 -8 -53 -19 -29 -37 -36 -69
-28 -51 13 -37 98 17 109 40 8 51 3 60 -28z m3 -157 c16 7 33 8 47 2 13 -5 20
-9 16 -9 -4 -1 4 -18 18 -38 59 -87 69 -234 23 -326 -42 -84 -61 -91 -130 -55
-52 27 -95 85 -108 149 -14 63 -14 176 -1 184 6 3 10 28 10 54 l0 48 50 -10
c36 -7 58 -7 75 1z"/>
<path d="M1833 2076 c-10 -11 -9 -15 3 -20 9 -3 22 -6 30 -6 12 0 12 4 2 20
-15 23 -19 24 -35 6z"/>
<path d="M8994 2066 c-10 -27 2 -43 14 -19 8 14 9 24 2 28 -6 3 -13 -1 -16 -9z"/>
<path d="M8915 1940 c-3 -5 -1 -10 4 -10 6 0 11 5 11 10 0 6 -2 10 -4 10 -3 0
-8 -4 -11 -10z"/>
<path d="M1858 1922 c-10 -2 -18 -8 -18 -13 0 -13 27 -11 35 2 9 13 4 16 -17
11z"/>
<path d="M8873 1904 c-3 -10 -11 -22 -17 -26 -7 -5 -5 -8 5 -8 9 0 19 10 22
22 8 28 0 37 -10 12z"/>
<path d="M8740 1890 c0 -5 5 -10 10 -10 6 0 10 5 10 10 0 6 -4 10 -10 10 -5 0
-10 -4 -10 -10z"/>
<path d="M8799 1884 c-12 -14 -11 -16 5 -13 11 2 21 10 24 17 5 17 -13 15 -29
-4z"/>
<path d="M8883 1865 c-7 -8 -9 -16 -4 -19 5 -3 12 1 15 10 8 22 4 25 -11 9z"/>
<path d="M8810 1840 c-9 -6 -10 -10 -3 -10 6 0 15 5 18 10 8 12 4 12 -15 0z"/>
<path d="M8851 1471 c-10 -6 -4 -11 20 -15 33 -7 65 -18 101 -37 23 -12 55
-11 63 0 3 5 19 12 35 16 35 8 40 20 8 21 -53 2 -184 15 -198 19 -8 2 -21 1
-29 -4z"/>
<path d="M8733 1345 c32 -16 54 -22 64 -17 11 7 4 13 -29 25 -67 26 -91 20
-35 -8z"/>
</g>
</svg>
